<svg width="244" height="159" viewBox="0 0 244 159" fill="none" xmlns="http://www.w3.org/2000/svg">
<path d="M58.8689 118.969L59.525 118.557L60.2771 118.675L169.69 135.763C176.112 136.766 182.748 135.931 188.825 133.355C197.644 129.617 204.638 122.494 208.167 113.657L239.63 34.8676C242.59 27.4545 241.115 19.1506 235.822 13.4288C232.099 9.40407 226.86 7.07412 221.271 6.95759L24.7533 2.86013C21.6939 2.79634 18.6542 3.62337 16.0094 5.23914C10.3819 8.67709 7.3756 15.1423 8.45756 21.4798L24.3512 114.578L24.463 115.233L24.152 115.834L5.10154 152.694L58.8689 118.969Z" fill="white" fill-opacity="0.86" stroke="black" stroke-width="4"/>
</svg>
