<?xml version="1.0" encoding="utf-8"?>
<!-- Generator: Adobe Illustrator 18.0.0, SVG Export Plug-In . SVG Version: 6.00 Build 0)  -->
<!DOCTYPE svg PUBLIC "-//W3C//DTD SVG 1.1//EN" "http://www.w3.org/Graphics/SVG/1.1/DTD/svg11.dtd">
<svg version="1.1" id="Layer_1" xmlns="http://www.w3.org/2000/svg" xmlns:xlink="http://www.w3.org/1999/xlink" x="0px" y="0px"
	 viewBox="0 0 316 85" enable-background="new 0 0 316 85" xml:space="preserve">
<g>
	<path fill="#32428B" d="M9.7,10l3.2-0.5L10,9.5L9.7,10z"/>
	<path fill="#32428B" d="M70,78.6l-7-0.4c-2.1,0.8-4.3,1.9-6.5,3.2l11.3,0.7l15.1-1c-2.3-1.2-4.6-2.1-6.6-2.9L70,78.6z"/>
	<path fill="#32428B" d="M191.7,73.8l25.6-1.8l15.3,0.6c-6-1-12.3-1.7-18.9-1.9C205.1,70.4,197.9,71.7,191.7,73.8z"/>
	<path fill="#32428B" d="M19.3,75.6L6.2,69.2L12,39.8L8.7,23.3l1-13.2l-2.2,3.4l-1,13.3l3.3,16.5L4,72.6L17.1,79l39.4,2.4
		c2.2-1.3,4.4-2.4,6.5-3.2L19.3,75.6z"/>
	<path fill="#32428B" d="M303.9,71.2l0.8-3.2l-1.2,3.7l-84.1-3.1l-87.4,6l-55.8,3.6c2.1,0.8,4.3,1.7,6.6,2.9l46.9-3l61.8-4.3
		c6.2-2.1,13.5-3.4,22-3.1c6.6,0.2,12.9,0.9,18.9,1.9l68.8,2.5L303.9,71.2z"/>
	<path fill="#32428B" d="M68.9,76.7c-1.9,0.1-3.9,0.7-6,1.5l7,0.4l6.3-0.4C73.4,77.2,70.8,76.6,68.9,76.7z"/>
	<path fill="#32428B" d="M219.4,68.6l84.1,3.1l1.2-3.7l4.7-18.5L302.8,4l-20.5,2l-48.2,1.6l-43.5-2.2l-23.4,6.5l-38,1l-65.8-2.4
		L12.9,9.5L9.7,10l0,0l-1,13.2L12,39.8L6.2,69.2l13.1,6.4l43.6,2.7c2.1-0.8,4-1.3,6-1.5c1.9-0.1,4.5,0.4,7.3,1.5l55.8-3.6
		L219.4,68.6z"/>
	<path fill="#315597" d="M107.1,6.9l24.3,2.4l10.2-0.8l-9.8,0.2L107.1,6.9z"/>
	<path fill="#315597" d="M284.9,2l-48.2,1.6l-42.5-0.8l-0.1,0l42.2,1.3l48.2-1.6l20.5-2l6.6,45.5l-7.9,25.2l0.2,0l8.1-25.7L305.4,0
		L284.9,2z"/>
	<path fill="#315597" d="M9.9,10l3.8-0.5L10,9.5L9.9,10z"/>
	<path fill="#315597" d="M68.9,76.7c-1.5,0.1-3.1,0.5-4.7,1l6.1,0.4l4.8-0.3C72.7,77,70.6,76.6,68.9,76.7z"/>
	<path fill="#2A4474" d="M219.8,68.1l84,3.1l7.9-25.2L305,0.5l-20.5,2l-48.2,1.6l-42.2-1.3l-24.3,5l-28.2,0.7l-10.2,0.8l-24.3-2.4
		L58.9,3.2l-20,5.7L13.8,9.4L9.9,10L9,22.8l3.3,16.5L6.5,68.7L19.6,75l44.6,2.7c1.6-0.5,3.2-0.9,4.7-1c1.7-0.1,3.8,0.3,6.1,1.1
		l57.3-3.7L219.8,68.1z"/>
	<path fill="#32428B" d="M205.2,63.2c-14.1,1.4-19.7,0.6-21.6,0.1c1.5-1.1,7.1-4,27-8.3c16.2-3.5,20.4-5.8,20.6-7.9
		c0-0.3,0-0.5-0.1-0.7c-2.4-6.8-47.4-2.8-60.8-0.6c-14.3,2.3-19,0.5-25.3-2c-7-2.8-15.8-6.2-38.7-6.5c-27.6-0.3-37.5,3.6-50.1,8.6
		c-7.9,3.1-16.9,6.7-32.5,9.8c-6.2,1.3-11.2,2-15.4,2.5l-0.8,4.2c4.9-0.5,10.6-1.5,17.6-2.9c16-3.3,25.2-6.9,33.3-10.1
		c12-4.7,21.6-8.5,48-8.2c21.8,0.2,30,3.5,36.6,6c7,2.8,12.5,4.9,28.4,2.4c21.1-3.4,45-3.3,51.2-2c-1.6,0.7-5.3,2-13.5,3.8
		c-8.2,1.8-35.1,8.1-35.5,13.6l0.1,0.7c1.2,3.9,12.4,3.6,30.1,1.7l2.1-0.2c13.6-1.4,33.4-1.7,54.4-2c15.9-0.3,32.1-0.5,45.7-1.3
		l1.2-4c-13.8,0.8-30.7,1.1-47.2,1.4C238.9,61.5,219,61.9,205.2,63.2z"/>
	<path fill="#32428B" d="M261,27.9c-14.5,2.4-23.5,0.3-24-0.9c0.1-0.5,2.5-2.7,12.5-5.2c12.6-3.1,22.2-9.5,22.9-13.3
		c0.4-2.1-0.4-4-2.2-5.4l-26.3,0.9c-1,0.3-2.1,0.7-3.1,1c-15.4,5.5-29.7,5-46.2,4.4c-11.1-0.4-22.6-0.8-35.8,0.6
		c-33.4,3.4-46,3.5-73.6,3.1c-19.6-0.3-26,0.9-39.8,3.6c-6.3,1.2-14.2,2.6-25.6,4.5c-4.2,0.7-7.9,1.2-11.1,1.6l0,0.5l1,4.8
		c3.1-0.3,6.6-0.7,10.5-1.3c7.2-1.1,13.5-2.8,18.5-4.2l8.2-2c13.4-2.6,19.6-3.8,38.6-3.5l17,0.4c17.3,0.5,30.9,0.9,57-1.7l4.9-0.5
		c10.7-1.1,20.9-2.2,30.3-1.8c16.4,0.6,31.9,1.1,48.4-4.8c10.2-3.6,16.6-3.1,19.1-1.6c0.8,0.5,1.2,1.2,1,2c-0.4,2-4,6-15.3,8.8
		c-15.5,3.8-18.1,9-17.2,11.4c2.2,5.9,20.9,4.5,31.6,2.7c17.9-3,35.8-3.3,47-2.7l-0.3-2.3C297.5,25.7,279.7,24.7,261,27.9z"/>
	<path fill="#315597" d="M252.3,3.6l14.2-0.5C263.2,2.2,257.9,2.5,252.3,3.6z"/>
	<path fill="#315597" d="M261.3,29.6c-14.4,2.4-24.8,0.5-25.7-1.8c-0.4-1.1,1.9-3.8,13.4-6.6c12.1-2.9,21.3-9.1,22-12.5
		c0.4-1.9-0.5-3.7-2.5-4.9c-0.5-0.3-1.2-0.6-2-0.8l-14.2,0.5c-3.7,0.7-7.5,1.7-10.9,3c-15.7,5.6-30.1,5.1-46.8,4.5
		c-11-0.4-22.5-0.8-35.6,0.6c-33.5,3.4-46.2,3.6-73.8,3.1c-19.5-0.3-25.7,0.9-39.5,3.6c-6.3,1.2-14.2,2.7-25.7,4.5
		c-4.2,0.7-7.9,1.1-11.2,1.4l0.6,3.2c3.1-0.2,6.4-0.6,10.3-1.2c11.5-1.8,20.3-5,26.6-6.2c13.6-2.6,19.7-3.8,38.9-3.5
		c27.7,0.4,40.2,2.1,73.9-1.3c12.9-1.3,24.5-2.7,35.4-2.4c16.3,0.6,31.6,1.1,47.8-4.7C253.1,4.4,260,5,262.9,6.8
		c1.3,0.8,1.8,1.9,1.6,3.1c-0.5,2.7-5.1,6.9-16.2,9.6c-13.7,3.3-17,7.9-16.3,10c1.5,4.1,15.7,4.2,29.8,1.8
		c17.4-2.9,35.6-2.9,47.4-2.2l-0.3-1.8C296.9,26.6,278.9,26.7,261.3,29.6z"/>
	<path fill="#32428B" d="M255.2,54.2c-7.7,0.6-15.2,1.6-21.9,2.5c-9.2,1.2-20.6,2.7-22.6,1.4c0.3-1.4,11.4-2.9,15.5-3.5l7.2-0.8
		c10.7-1.1,17.8-2,19.1-4.8c0.5-1,0.7-2.7-1.1-4.8c-9.1-10.3-62.1-10.2-76.4-5.1c-9.5,3.3-12.9,2.2-25.6-2c-1.7-0.6-4.2-1.8-6.8-3.1
		c-4-2-8.5-4.3-12.9-5.5c-27.4-7.9-53.8,2.2-73,9.5l-0.8,0.3C45,42.5,34.1,46.2,25.1,48.5c-5,1.3-10.1,2.6-15.6,4.2l-0.7,3.7
		c1.2-0.3,2.4-0.6,3.8-1c5.9-1.8,11.4-3.2,16.7-4.5c8.8-2.2,17.9-4.5,29.1-8.8c18.6-7.1,46.3-14,72.3-6.5l17.1,5.3
		c12.9,4.3,18.2,6,29.6,2c14.8-5.2,57.1-4.2,63.4,3c0.5,0.6,0.5,0.8,0.5,0.8c-0.8,1.7-10.3,3.1-16,3.9c-10.6,1.5-19.8,2.8-19.4,7.7
		c0.1,1.2,0.8,2.2,1.9,3c3.8,2.5,12.9,1.3,26.7-0.5c6.7-0.9,14.1-1.9,21.6-2.5c9.6-0.8,20.5,0.1,31.1,1c7,0.6,13.7,1.2,20,1.3
		l1.3-4.1c-6.4,0-13.6-0.6-21-1.2C276.5,54.4,265.3,53.4,255.2,54.2z"/>
	<path fill="#32428B" d="M191.8,70.5l-18.9,1.3c1.5,0.3,3.1,0.7,4.9,1.1c0.2,0.1,16.7-1.5,16.1-1.7C193.2,71,192.5,70.7,191.8,70.5z
		"/>
	<path fill="#32428B" d="M138,68L138,68c-2.6,1.1-5.2,2.3-8.2,3.1c-11.2,2.9-23.9,5-29,5.1c1.2-0.8,3.4-2.1,7.4-3.9l1.2-0.5
		c6.4-3,9.5-4.6,9.6-6.3l-0.1-0.7c-1.4-3.2-10.1-2.4-31.1-0.7l-10.9,0.9c-17.5,1.4-37.8,2.3-44.2,1.4c-11.2-1.6-19.7-1-25.9,0.5
		l-0.5,2.3L7,69.6c7.5-1.6,16.3-2.6,22.8-0.2c7.2,2.6,27.7,1,47.6-0.6c9.4-0.7,25.9-2,31.2-1.5c-0.6,0.4-1.5,0.9-3.1,1.6
		c-9,4.2-11,6.2-11.1,7.9l0.1,0.3l37.3-2.4c3.2-0.9,5.9-2.1,8.5-3.2c8-3.6,11.9-4.3,32.5,0.4l18.9-1.3C158.5,58.5,141.7,66.3,138,68
		z"/>
	<path fill="#315597" d="M98,77.7c0,0,0-0.1,0-0.1c0,0-0.1,0-0.1-0.1C98,77.5,98,77.6,98,77.7z"/>
	<path fill="#315597" d="M76.9,66.5c-18.5,1.5-39.5,3.1-45.8,0.8c-7.3-2.7-16.6-1.8-24.5-0.1l-0.4,1.9l0.1,0.1
		c7.7-1.7,17-2.7,23.9-0.2c6.9,2.5,27.3,0.9,47-0.6c13.5-1.1,31.8-2.5,33.8-1c0,0,0-0.1,0-0.1c0,0,0,0.1,0,0.1c0,0,0,0-0.1,0
		c-0.1,0.2-0.8,1.1-4.8,3c-7,3.3-9.7,5.2-10.3,6.6l2.9-0.2c1-0.8,3.4-2.3,8.6-4.8c4.7-2.2,10.8-4.9,10.1-6.3
		C116.3,62.9,102.2,64.6,76.9,66.5z"/>
	<path fill="#315597" d="M138.6,69.5c-2.6,1.2-5.3,2.4-8.4,3.2c-4.1,1.1-8.7,2.1-13.2,2.9l12.3-0.8c1-0.2,1.6-0.4,1.7-0.4
		c3.3-0.9,6.1-2.1,8.8-3.3c7.6-3.4,13.6-5,31.8,0.8l17.4-1.2C165.4,64,146.5,66,138.6,69.5z"/>
	<path fill="#315597" d="M111,67.4C111,67.4,111.1,67.4,111,67.4C111.1,67.4,111,67.4,111,67.4C111,67.3,111,67.4,111,67.4z"/>
	<path fill="#315597" d="M207.3,63.5c-17.3,1.7-23.3,0.1-23.6-0.7c0,0-0.1-3.4,28.4-9.6c15.9-3.5,20.2-5.8,19.7-7.4
		c-1.7-5-41.4-2.8-59.3,0.1c-14.8,2.4-19.6,0.5-26.2-2.1c-6.9-2.7-15.5-6.1-38.1-6.4C81,37.2,71.2,41.1,58.8,46
		c-8,3.1-17.1,6.7-32.7,9.9c-7.3,1.5-13.2,2.4-17.8,2.9l-0.4,1.9c5.3-0.5,11.6-1.5,18.8-3c15.8-3.2,25-6.8,33.1-10
		c12.2-4.8,21.8-8.6,48.6-8.3c22.1,0.2,30.4,3.5,37.1,6.2c6.8,2.7,12.1,4.8,27.6,2.3c22.8-3.7,51.8-3.5,53.9-1.2c0,0,0,0,0-0.1
		c0,0,0,0.1,0,0.1c0,0,0,0,0,0c-0.2,0.4-1.9,2-15.5,5c-20.8,4.6-35.5,9.9-34.6,13.1c1.2,4.1,23.3,1.4,30.7,0.7
		c13.6-1.4,33.5-1.7,54.5-2c15.4-0.3,31-0.5,44.4-1.2l0.6-1.9c-13.4,0.7-29.4,1-45.1,1.3C241,61.8,221.1,62.1,207.3,63.5z"/>
	<path fill="#315597" d="M227.1,46.5C227.1,46.5,227,46.5,227.1,46.5C227,46.5,227.1,46.5,227.1,46.5
		C227.1,46.5,227,46.5,227.1,46.5z"/>
	<path fill="#315597" d="M254.6,55.9c-7.6,0.6-15.2,1.6-21.8,2.5c-10.9,1.5-21.2,2.8-23.7,1.2c-0.3-0.2-0.5-0.4-0.5-0.8
		c-0.2-2.4,9.1-3.7,16.6-4.8c8.8-1.2,23.8-1.8,25.3-5c0.5-1.1,0.2-2.4-0.9-3.7c-8.6-9.8-60.8-9.6-74.7-4.7c-10,3.5-13.9,2.2-26.8-2
		c-4.5-1.5-12.4-6.5-19.6-8.6c-27.2-7.8-53.5,2.5-72.8,9.8c-10.9,4.2-19.5,6.3-28.7,8.6c-5.3,1.3-10.9,2.7-16.8,4.6
		c-0.3,0.1-0.6,0.2-1,0.3l-0.4,2c0.7-0.2,1.5-0.4,2.2-0.6c5.9-1.8,11.4-3.2,16.7-4.5c8.8-2.2,17.9-4.5,28.9-8.7
		c18.9-7.2,46.9-14.2,73.4-6.6c7.2,2.1,12.7,3.9,17.2,5.4c12.8,4.2,17.6,5.8,28.5,2c14.1-5,57.9-4.8,65.2,3.5c1,1.2,0.7,1.8,0.6,2
		c-1.1,2.3-9.5,3.5-17,4.5c-10,1.4-18.6,2.6-18.3,6.6c0.1,0.9,0.5,1.6,1.3,2.1c3.3,2.2,12.7,0.9,25.6-0.8c6.6-0.9,14.1-1.9,21.7-2.5
		c9.8-0.8,20.7,0.1,31.4,1c7.4,0.6,14.5,1.3,20.9,1.3l0.6-1.9c-6.6,0-13.9-0.6-21.4-1.3C275.7,56.1,264.6,55.1,254.6,55.9z"/>
</g>
</svg>
