<svg width="396" height="146" viewBox="0 0 396 146" fill="none" xmlns="http://www.w3.org/2000/svg">
<path d="M272.143 122.329L378.22 134.676L390.986 97.5368L387.567 28.4641L361.348 29.5788L300.11 27.5797L246.721 21.7475L215.367 27.0783L179.54 25.5429L166.548 25.7551L136.022 19.8928L75.2883 9.8747L49.3599 16.6421L17.4422 15.0684L12.5501 15.5267L9.96188 34.7207L12.3692 59.9189L1.82697 103.569L17.728 114.399L73.904 122.566C76.0002 121.904 78.0353 121.511 80.0045 121.488C82.1131 121.445 84.7366 122.266 87.6699 123.661L160.712 123.34L272.143 122.329Z" fill="#2A4474"/>
<circle cx="366.5" cy="75.5" r="9" fill="#BCBCBC" stroke="#E7F8FF"/>
<circle cx="27.5" cy="85.5" r="9" fill="#BCBCBC" stroke="#E7F8FF"/>
</svg>
