<svg width="707" height="240" viewBox="0 0 707 240" fill="none" xmlns="http://www.w3.org/2000/svg">
<g filter="url(#filter0_d_2497_9540)">
<path d="M52.3389 52.4463L59.3376 51.26L53.0361 51.1465L52.3389 52.4463Z" fill="#32428B"/>
<path d="M182.987 226.118L167.832 225.076C163.301 227.154 158.653 229.961 153.848 233.243L178.269 234.938L210.932 232.374C205.905 229.46 201.06 226.947 196.596 225.051L182.987 226.118Z" fill="#32428B"/>
<path d="M445.689 213.276L500.898 208.678L534.024 210.027C521.069 207.444 507.38 205.661 493.17 205.207C474.732 204.618 459.052 207.917 445.689 213.276Z" fill="#32428B"/>
<path d="M73.6341 218.601L45.3265 202.443L57.5785 128.009L50.2906 86.0803L52.267 52.5224L47.5646 61.2245L45.5796 94.8826L52.8719 136.805L40.6156 211.251L68.9187 227.414L153.851 233.279C158.654 230.002 163.304 227.199 167.828 225.118L73.6341 218.601Z" fill="#32428B"/>
<path d="M688.049 205.939L689.761 197.903L687.29 207.259L505.607 199.812L316.972 215.555L196.61 225.024C201.074 226.93 205.915 229.444 210.942 232.36L312.263 224.397L445.685 213.268C459.052 207.909 474.732 204.607 493.166 205.196C507.376 205.645 521.065 207.435 534.02 210.02L682.59 216.083L688.049 205.939Z" fill="#32428B"/>
<path d="M180.761 221.332C176.555 221.698 172.256 223.045 167.835 225.083L182.99 226.13L196.603 225.058C190.391 222.419 184.905 220.955 180.761 221.332Z" fill="#32428B"/>
<path d="M505.626 199.961L687.291 207.386L689.762 198.059L699.802 150.975L685.145 35.5842L640.882 40.7392L536.895 45.0806L442.993 39.604L392.526 56.1888L310.417 58.7996L168.46 52.9568L59.3437 51.0948L52.3452 52.2798L52.2794 52.3914L50.2977 85.9697L57.5929 127.931L45.336 202.429L73.6548 218.593L167.886 225.116C172.307 223.079 176.611 221.738 180.812 221.373C184.956 220.996 190.441 222.454 196.653 225.096L317.005 215.651L505.626 199.961Z" fill="#32428B"/>
<path d="M262.696 44.0835L315.159 50.0949L337.136 48.1034L315.901 48.7816L262.696 44.0835Z" fill="#315597"/>
<path d="M646.356 30.6268L542.393 34.9711L450.584 33.1718L450.474 33.2054L541.643 36.2806L645.611 31.9474L689.876 26.7898L704.522 142.114L687.662 205.955L688.064 205.976L705.272 140.81L690.622 25.4803L646.356 30.6268Z" fill="#315597"/>
<path d="M52.9658 52.3358L61.1898 50.9515L53.0372 51.1431L52.9658 52.3358Z" fill="#315597"/>
<path d="M180.761 221.333C177.428 221.624 174.031 222.54 170.564 223.914L183.744 224.821L194.025 224.023C188.877 222.045 184.327 221.001 180.761 221.333Z" fill="#315597"/>
<path d="M492.934 198.227L686.489 205.616L704.496 141.738L688.856 26.3459L641.588 31.506L530.551 35.8405L433.187 32.7624L377.205 45.6367L312.194 47.5591L288.725 49.5457L232.709 43.5474L121.487 34.3723L75.5163 48.9744L17.5707 50.342L8.78486 51.7246L6.73066 84.2339L14.5338 126.184L1.44016 200.7L31.6831 216.864L134.408 223.506C138.109 222.134 141.736 221.219 145.294 220.933C149.102 220.597 153.96 221.645 159.456 223.616L291.526 213.909L492.934 198.227Z" fill="#2A4474"/>
<path d="M474.86 186.427C444.502 190.086 432.391 187.944 428.335 186.737C431.651 183.88 443.64 176.6 486.613 165.425C521.483 156.359 530.677 150.589 531 145.314C531.038 144.667 530.952 144.037 530.779 143.413C525.61 126.045 428.338 136.51 399.512 142.061C368.553 148.035 358.572 143.441 344.786 137.065C329.595 130.068 310.677 121.334 261.274 120.831C201.702 120.233 180.267 130.184 153.142 142.806C136.017 150.751 116.608 159.788 83.1457 167.936C69.8253 171.183 58.8999 173.159 49.9341 174.289L48.1768 184.976C58.6676 183.62 71.1393 181.128 86.1517 177.481C120.587 169.085 140.468 159.846 158.029 151.672C183.987 139.598 204.493 130.074 261.675 130.665C308.674 131.146 326.396 139.308 340.641 145.856C355.731 152.842 367.636 158.341 402.038 151.691C447.474 142.913 499.125 143.211 512.522 146.236C509 148.09 501.082 151.352 483.44 155.942C465.723 160.537 407.834 176.68 406.969 190.682L407.124 192.461C409.708 202.48 433.906 201.54 472.101 196.743L476.628 196.181C505.915 192.669 548.712 191.732 594.027 190.739C628.275 190.004 663.254 189.24 692.616 187.262L695.275 177.192C665.428 179.35 628.954 180.134 593.331 180.921C547.703 181.899 504.619 182.876 474.86 186.427Z" fill="#32428B"/>
<path d="M594.987 96.5339C563.667 102.793 544.243 97.3107 543.197 94.2684C543.365 93.0078 548.608 87.2917 570.174 81.0819C597.349 73.1979 617.975 56.8248 619.515 47.0574C620.315 41.8308 618.553 36.9165 614.644 33.2338L557.916 35.5965C555.661 36.4156 553.441 37.2905 551.305 38.1818C518.034 52.2244 487.264 51.0273 451.625 49.6682C427.611 48.7571 402.835 47.7976 374.32 51.2794C302.191 60.0556 274.941 60.5012 215.483 59.6023C173.068 58.9665 159.43 62.0694 129.549 68.9335C115.933 72.0475 98.9227 75.6096 74.2924 80.5939C65.2494 82.4096 57.3514 83.7377 50.3782 84.69L50.2986 86.0452L52.4311 98.3081C59.0965 97.6575 66.6161 96.5868 75.113 94.9786C90.6876 92.0275 104.128 87.7708 114.939 84.3062L132.597 79.1311C161.566 72.5033 174.785 69.4905 215.837 70.0903L252.63 71.0175C289.952 72.2055 319.443 73.1323 375.746 66.304L386.343 64.9811C409.498 62.1079 431.348 59.3659 451.701 60.1568C487.173 61.5163 520.646 62.8078 556.159 47.8067C578.13 38.5346 592.06 39.7637 597.302 43.6442C599.078 44.9562 599.798 46.6163 599.465 48.7081C598.695 53.6726 590.891 63.9614 566.505 71.0195C533.141 80.6683 527.608 93.8571 529.567 100.143C534.323 115.204 574.66 111.423 597.744 106.816C636.424 99.0956 675.001 98.2735 699.149 99.7697L698.43 93.9944C673.885 90.7927 635.412 88.4697 594.987 96.5339Z" fill="#32428B"/>
<path d="M576.193 34.8671L606.794 33.5986C599.612 31.3318 588.219 32.1387 576.193 34.8671Z" fill="#315597"/>
<path d="M588.256 100.52C555.095 106.724 530.99 102.033 528.993 96.1036C528.014 93.2335 533.449 86.4851 559.85 79.3362C587.728 71.7883 608.918 56.2011 610.359 47.5704C611.157 42.6833 609.132 38.2705 604.635 35.1679C603.398 34.3116 601.875 33.6399 600.126 33.1249L567.458 34.3919C558.983 36.1997 550.224 38.828 542.268 41.9677C506.058 56.2699 472.84 55.0786 434.39 53.7029C408.932 52.7799 382.603 51.8419 352.399 55.2788C275.146 64.0783 245.963 64.5293 182.319 63.6355C137.429 63.0094 122.998 66.1067 91.3643 72.8705C76.8108 75.9905 58.7002 79.8874 32.2296 84.5547C22.5308 86.2702 13.9649 87.4369 6.40527 88.1776L7.91035 96.2724C14.9432 95.7056 22.7703 94.7245 31.5327 93.1726C58.0974 88.4717 78.2005 80.4938 92.7963 77.3515C124.011 70.6499 138.245 67.6087 182.475 68.2418C246.416 69.1294 275.147 73.2748 352.749 64.4579C382.53 61.0553 409.178 57.4027 434.424 58.2983C471.904 59.637 507.27 60.9131 544.528 46.2015C569.296 36.4014 585.22 37.8294 591.865 42.4278C594.777 44.4351 596.034 47.1764 595.503 50.3619C594.344 57.3468 583.86 67.9817 558.14 74.9395C526.621 83.4654 518.908 95.0538 520.753 100.504C524.267 110.893 556.936 111.12 589.561 105.012C629.63 97.5284 671.527 97.4804 698.768 99.3199L698.145 94.6421C670.49 92.7922 628.904 92.9177 588.256 100.52Z" fill="#315597"/>
<path d="M582.695 163.402C566.084 165.066 549.83 167.656 535.474 169.917C515.672 173.049 491.025 176.95 486.742 173.693C487.304 170.186 511.25 166.198 520.258 164.689L535.831 162.57C558.915 159.72 574.245 157.312 577.106 150.165C578.157 147.532 578.58 143.306 574.63 138.064C554.962 111.855 440.433 112.489 409.574 125.384C389.184 133.907 381.78 131.036 354.218 120.407C350.465 118.933 345.16 115.812 339.523 112.531C330.926 107.483 321.176 101.758 311.668 98.5688C252.518 78.7071 195.638 104.374 154.118 123.15L152.361 123.945C128.969 134.488 105.399 144.111 85.8556 149.979C75.1369 153.185 64.0747 156.527 52.1773 160.745L50.6452 170.09C53.2005 169.365 55.901 168.506 58.7816 167.452C71.4849 162.887 83.3049 159.326 94.7197 155.901C113.756 150.206 133.422 144.304 157.47 133.454C197.621 115.327 257.281 97.6812 313.465 116.541L350.411 130.042C378.327 140.837 389.845 145.288 414.393 135.005C446.233 121.712 537.555 124.117 551.29 142.414C552.38 143.86 552.32 144.485 552.311 144.502C550.552 148.931 530.08 152.316 517.85 154.372C494.887 158.197 475.063 161.496 475.927 174.147C476.143 177.167 477.615 179.851 480.1 181.74C488.4 188.087 508.018 184.983 537.733 180.263C552.102 178.001 568.171 175.457 584.358 173.816C605.095 171.746 628.658 174.079 651.485 176.33C666.5 177.813 681.149 179.252 694.696 179.433L697.459 168.976C683.578 168.996 668.064 167.475 652.101 165.906C628.723 163.583 604.564 161.19 582.695 163.402Z" fill="#32428B"/>
<path d="M446.036 204.825L405.178 208.233C408.483 209.101 411.965 210.04 415.699 211.069C416.127 211.196 451.63 207.215 450.456 206.699C448.959 206.05 447.497 205.446 446.036 204.825Z" fill="#32428B"/>
<path d="M329.748 198.785L329.695 198.808C324.218 201.694 318.53 204.686 312.076 206.648C288.021 214.006 260.495 219.379 249.578 219.8C252.222 217.735 256.952 214.527 265.44 209.799L267.94 208.42C281.776 200.756 288.325 196.685 288.594 192.404L288.329 190.653C285.252 182.641 266.477 184.503 221.142 189.001L197.579 191.285C159.913 194.846 116.084 197.332 102.243 195.014C78.1231 190.966 59.7884 192.681 46.2665 196.428L45.2839 202.389L47.02 203.384C63.1289 199.152 82.1492 196.694 96.2832 202.716C111.835 209.349 156.188 205.16 199.095 201.075C219.396 199.155 255.047 195.777 266.538 197.074C265.183 198.098 263.242 199.391 259.914 201.251C240.47 212.07 236.301 217.101 236.054 221.314L236.197 221.995L316.8 215.654C323.677 213.418 329.47 210.386 335.07 207.428C352.417 198.294 360.732 196.506 405.174 208.292L446.033 204.886C374.048 174.542 337.699 194.588 329.748 198.785Z" fill="#32428B"/>
<path d="M243.554 223.575C243.563 223.531 243.576 223.442 243.646 223.285C243.544 223.23 243.43 223.18 243.359 223.119C243.461 223.213 243.576 223.442 243.554 223.575Z" fill="#315597"/>
<path d="M163.535 194.995C120.854 198.774 72.5066 203.062 57.9286 197.271C41.1205 190.56 19.6284 192.785 1.43909 197.06L0.574676 201.962L0.843554 202.112C18.6651 197.682 39.9958 195.062 56.0165 201.434C71.8817 207.78 118.855 203.595 164.279 199.581C195.305 196.835 237.632 193.073 242.17 197.006C242.217 196.905 242.226 196.849 242.23 196.838C242.226 196.905 242.269 197.044 242.311 197.111C242.283 197.078 242.217 197.039 242.17 197.006C241.903 197.597 240.371 199.858 231.224 204.627C215.016 213.063 208.85 217.904 207.43 221.33L214.19 220.837C216.565 218.691 221.911 214.916 233.977 208.625C244.789 203.005 258.718 196.18 257.246 192.553C254.337 185.484 221.881 189.828 163.535 194.995Z" fill="#315597"/>
<path d="M331.073 202.567C325.451 205.522 319.657 208.578 312.921 210.633C304.088 213.333 294.095 215.947 284.48 218.142L311.016 216.06C313.201 215.425 314.509 215.032 314.602 215.01C321.761 212.831 327.748 209.68 333.568 206.618C349.879 198.01 362.954 193.851 402.201 208.5L439.668 205.379C388.87 188.415 348.124 193.583 331.073 202.567Z" fill="#315597"/>
<path d="M271.546 197.435C271.59 197.474 271.651 197.502 271.678 197.541C271.638 197.48 271.594 197.341 271.602 197.268C271.598 197.28 271.589 197.341 271.546 197.435Z" fill="#315597"/>
<path d="M464.213 186.72C424.294 191.192 410.404 187.133 409.866 185.149C409.842 185.076 409.499 176.633 475.357 160.59C511.98 151.652 521.919 145.864 520.592 141.695C516.557 128.977 425.14 134.872 383.974 142.314C349.932 148.453 338.907 143.685 323.653 137.097C307.692 130.197 287.827 121.611 235.748 121.105C172.825 120.528 150.208 130.374 121.583 142.826C103.166 150.857 82.3036 159.941 46.3144 168.158C29.4372 172.014 15.9829 174.328 5.23718 175.572L4.40989 180.314C16.5821 179.001 31.0339 176.461 47.8122 172.628C84.3049 164.309 105.383 155.107 124.017 146.993C152.064 134.782 174.205 125.143 235.956 125.706C286.839 126.197 306.105 134.512 321.586 141.222C337.179 147.955 349.481 153.278 385.227 146.823C437.847 137.305 504.654 137.59 509.448 143.42C509.49 143.353 509.509 143.302 509.518 143.274C509.49 143.319 509.509 143.464 509.561 143.514C509.533 143.486 509.481 143.453 509.448 143.42C508.966 144.313 505.085 148.504 473.784 156.154C425.813 167.826 392.017 181.488 394.253 189.654C397.121 200.145 447.938 193.207 465.099 191.286C496.475 187.735 542.282 186.826 590.749 185.844C626.137 185.112 662.311 184.373 693.005 182.536L694.331 177.826C663.364 179.731 626.47 180.493 590.376 181.232C541.777 182.225 495.848 183.158 464.213 186.72Z" fill="#315597"/>
<path d="M521.925 143.708C521.916 143.735 521.894 143.791 521.859 143.853C521.886 143.886 521.938 143.919 521.965 143.947C521.916 143.897 521.894 143.758 521.925 143.708Z" fill="#315597"/>
<path d="M573.814 167.731C556.239 169.382 538.921 171.946 523.638 174.222C498.507 177.968 474.757 181.473 468.988 177.36C468.276 176.86 467.945 176.269 467.877 175.428C467.43 169.234 488.804 165.881 506 163.211C526.233 160.021 560.787 158.522 564.256 150.408C565.47 147.545 564.736 144.425 562.073 141.074C542.243 116.309 422.029 116.984 390.133 129.505C367.13 138.515 358.17 135.263 328.526 124.524C318.186 120.761 299.955 107.996 283.309 102.753C220.63 83.0337 160.102 109.328 115.876 128.065C90.7374 138.708 70.9356 144.267 49.9685 150.173C37.6758 153.629 24.9744 157.215 11.2087 161.89C10.457 162.148 9.7334 162.372 9.00043 162.603L8.08994 167.801C9.74864 167.312 11.459 166.79 13.2349 166.184C26.8644 161.57 39.5141 157.979 51.7363 154.557C71.9328 148.87 92.806 143.002 118.259 132.224C161.65 113.857 226.154 95.9951 287.133 115.194C303.7 120.42 316.497 125.058 326.78 128.776C356.363 139.487 367.423 143.51 392.371 133.709C424.863 120.992 525.727 121.252 542.483 142.166C544.844 145.116 544.19 146.611 543.98 147.13C541.501 152.934 522.053 155.983 504.871 158.658C481.87 162.255 462 165.377 462.755 175.489C462.903 177.674 463.986 179.534 465.871 180.874C473.54 186.365 495.01 183.184 524.729 178.763C539.927 176.493 557.166 173.935 574.595 172.29C597.037 170.183 622.356 172.524 646.857 174.788C663.901 176.362 680.184 177.981 694.971 178.104L696.315 173.295C681.223 173.357 664.419 171.811 647.134 170.216C622.394 167.919 596.778 165.562 573.814 167.731Z" fill="#315597"/>
<path d="M498.785 86.0137C498.391 86.2727 497.533 86.7446 495.295 87.4645C491.665 88.5615 488.004 89.2481 484.046 89.611C482 89.8009 480.819 89.8102 480.106 89.7356C479.76 88.7766 479.285 87.4372 479.285 87.4372L478.425 85.0165C478.411 84.9073 478.337 84.3812 478.337 84.3812C478.337 84.3812 478.322 84.0834 478.336 83.984C479.45 83.687 481.36 83.3054 484.805 82.9966L495.26 82.8244C497.238 82.9921 498.173 83.1555 498.797 83.2534C498.873 84.4315 498.886 85.3482 498.785 86.0137ZM537.759 87.5189C537.384 83.7467 533.699 72.3762 533.699 72.3762C530.391 62.1864 527.499 56.338 521.821 54.5866C515.716 52.6806 506.846 52.4057 493.053 53.661C476.362 55.1445 467.02 58.753 463.548 64.9829C462.295 67.2197 460.563 71.7082 460.049 84.5377C459.714 92.7333 460.007 101.219 460.919 110.52C462.681 128.299 465.423 133.582 467.648 136.182C472.256 141.47 482.681 142.96 502.453 141.178L521.188 138.952L532.757 137.265L536.798 104.897L534.497 102.165C532.684 101.477 528.518 102.655 524.786 103.021C524.384 103.028 505.056 106.129 505.056 106.129C502.598 106.327 499.755 108.699 500.145 112.574C500.145 112.574 500.368 113.03 500.451 113.212C497.56 113.341 491.348 113.603 487.245 113.771C486.612 111.641 485.986 108.608 485.534 106.03C486.632 105.965 509.201 102.754 520.124 99.3638C532.219 95.5804 535.338 93.9352 536.795 91.6218C536.809 91.5688 536.847 91.5389 536.892 91.4693C536.961 91.3268 537.158 91.194 537.206 91.0284C537.206 91.0284 537.047 91.2075 536.998 91.2109C537.557 90.3127 537.917 89.1469 537.759 87.5189Z" fill="#A8AC06"/>
<path d="M507.544 84.3615L507.541 84.2655C507.157 85.7954 504.752 87.2736 500.49 88.6168C496.552 89.7972 492.427 90.5908 488.079 90.9943C483.429 91.425 481.027 90.6459 479.612 90.1063C475.326 88.3055 476.195 77.9642 476.525 77.1724C477.178 75.6287 480.942 74.5281 487.818 73.9237C491.893 73.5439 495.65 73.5356 499.135 73.7661C502.934 74.0357 507.425 74.8763 507.722 77.8344C508.001 80.6967 508.136 82.0666 507.544 84.3615ZM530.496 70.4463C527.402 61.0273 525.111 57.0641 522.175 56.1406C516.601 54.4121 509.161 53.9984 497.092 55.0778C482.759 56.364 474.388 59.2488 471.95 63.6097C470.389 66.4198 469.431 72.237 469.053 80.9157C468.732 89.0615 469.048 97.4177 469.907 106.186C471.136 118.552 473.026 126.166 475.442 129.04C478.584 132.601 488.567 133.605 505.448 132.111C510.835 131.616 516.973 130.854 523.93 129.896C526.45 129.549 528.87 129.143 531.383 128.823L534.359 104.537C533.391 104.192 509.219 107.34 509.269 107.846C509.315 108.161 510.268 109.376 510.676 110.531C511.088 111.559 511.158 112.959 511.197 113.276C511.251 113.809 511.155 114.034 510.857 114.055C509.784 114.276 508.448 114.395 506.918 114.537C501.981 114.978 495.357 115.235 487.094 115.346C485.102 112.649 483.337 101.877 483.055 99.2531C483.022 98.6078 482.954 97.9593 482.98 97.2311C485.521 97.2089 488.274 97.0671 491.106 96.8159C501.032 95.93 511.331 93.8153 521.914 90.5318C531.515 87.5317 534.7 86.032 534.298 85.0929C534.413 85.2085 534.395 85.0993 534.335 84.5534C533.941 80.533 532.839 77.901 530.496 70.4463Z" fill="#FFF64D"/>
<path d="M423.889 79.802C423.889 79.802 423.123 79.5621 422.316 79.3289C421.364 77.2461 420.327 74.3492 419.535 69.3636C418.031 59.9117 418.8 56.6071 419.181 55.5902C419.762 55.2911 420.993 54.8647 423.243 54.4262C423.44 56.7126 424.036 62.3076 424.933 67.8524C425.59 72.1135 426.423 76.2155 427.327 78.497C427.327 78.4871 427.603 79.3006 427.953 80.3258C426.567 80.2031 425.178 80.054 423.889 79.802ZM461.015 81.5661C460.779 80.4612 460.536 79.1942 460.338 77.7782C458.866 68.5678 457.608 53.883 457.816 50.3811C458.248 41.471 458.055 34.9583 457.236 29.8635L456.702 26.2573L452.956 25.4879C447.544 24.3482 439.606 24.7763 428.005 26.7713C426.25 27.0234 423.415 28.4793 422.991 33.4445C420.803 33.6975 417.919 33.8959 413.446 33.929C405.419 34.0528 400.953 34.2878 398.396 34.6542C388.358 36.1063 385.319 40.925 384.579 44.7227C381.292 60.9565 380.292 72.4824 381.489 79.946C382.753 87.9224 386.589 94.427 392.907 99.2944C396.419 102.057 402.675 102.794 414.522 101.824C414.522 101.824 425.463 100.513 432.164 99.6671C433.373 107.511 433.531 113.729 432.877 118.619C430.66 119.425 426.775 120.4 423.387 121C425.818 113.3 425.903 112.803 425.677 111.417L424.981 107.1L420.067 106.958L401.931 106.082C395.714 105.699 392.756 105.606 391.261 109.025C389.749 111.864 389.422 115.75 390.291 121.299C391.008 125.861 392.538 131.275 395.022 138.444C398.637 148.299 399.59 150.954 404.46 150.265C407.028 149.799 412.744 148.516 434.02 142.081C461.284 133.876 463.248 131.829 464.414 129.454C466.517 126.298 467.87 120.348 464.963 101.924L461.015 81.5661Z" fill="#A8AC06"/>
<path d="M438.51 81.5586C433.958 81.9129 429.83 81.7368 425.991 80.9246C424.372 80.5575 422.844 80.0811 421.53 79.6074C419.747 76.4111 418.317 71.9035 417.392 66.147C415.923 56.8242 416.185 50.7971 418.222 48.0159C420.28 46.1679 424.505 45.0763 430.989 44.5257C431.501 44.4518 431.745 46.0001 431.924 49.008C432.055 51.2913 433.897 67.8842 435.761 72.6192C437.544 77.2915 438.505 80.076 438.653 80.9626C438.717 81.3298 438.6 81.5352 438.51 81.5586ZM458.934 78.6207C457.215 70.5328 455.361 50.8621 455.616 46.0893C455.989 38.0629 455.629 32.4476 454.852 27.4586C450.081 26.4565 442.687 26.142 432.305 27.9291C431.8 28.0096 431.521 34.0434 430.988 34.1075C428.029 34.7297 423.259 35.1308 416.777 35.1982C409.71 35.3033 404.891 35.5159 402.503 35.8587C396.989 36.6487 393.865 38.5818 393.258 41.7305C390.148 57.1662 389.144 68.3214 390.235 75.1563C391.284 81.7696 394.375 87.134 399.641 91.1731C401.866 92.9288 407.788 93.3359 417.315 92.58C421.922 92.1892 429.375 91.3254 439.706 89.823C440.048 89.7759 440.368 91.3207 440.87 94.4703C442.406 104.187 442.589 111.821 441.44 117.586C441.082 119.407 429.999 121.87 425.714 122.499C424.205 122.714 422.44 122.887 420.722 122.828C418.974 122.894 418.257 122.899 418.541 122.862C418.856 122.812 419.717 120.414 421.33 115.681C422.832 110.929 423.586 108.458 423.547 108.174C423.236 108.214 415.465 107.963 412.04 107.776C403.822 107.314 399.572 106.923 399.496 107.109C398.456 108.958 398.32 112.102 399.034 116.525C399.744 121.028 401.315 126.422 403.537 132.761C405.569 138.274 406.61 141.081 406.911 141.018C410.503 140.397 420.048 137.738 435.66 133.064C453.006 127.819 462.157 124.417 462.852 122.939C464.98 120.191 464.917 112.04 462.794 98.6874C461.978 93.4304 460.69 86.725 458.934 78.6207Z" fill="#FFF64D"/>
<path d="M387.797 93.6782C384.749 80.2045 380.838 73.0246 375.074 70.3863C372.816 69.2627 368.491 68.018 355.959 68.5456C349.356 68.845 343.675 69.5129 338.452 70.448C338.219 69.0882 335.771 58.9296 335.771 58.9296L330.25 61.156L306.762 70.5648L308.042 75.692L309.042 78.9399C310.591 85.814 311.583 98.8487 311.995 117.71L312.652 149.925C312.652 149.925 311.557 155.193 319.669 153.404C325.085 152.201 338.012 148.7 346.019 146.485C350.304 145.618 351.045 137.69 351.045 137.69L349.474 131.418L345.43 110.688C344.625 105.59 344.255 102.572 344.087 100.716C346.872 99.9584 348.544 99.5211 351.796 98.6599C353.139 102.907 354.712 108.553 356.381 115.135L359.057 127.283L360.85 134.838C362.718 140.768 369.363 139.416 372.561 138.737C379.264 137.355 383.953 136.001 387.238 134.521C391.454 132.678 391.62 128.173 391.033 117.527C390.514 108.907 389.419 100.893 387.797 93.6782Z" fill="#A8AC06"/>
<path d="M385.714 92.4594C383.158 81.1659 379.825 74.9676 375.436 72.558C372.866 71.3226 367.403 69.6037 359.096 69.9333C350.731 70.3227 337.367 72.6493 337.333 72.9009C336.995 70.0256 334.433 62.4322 334.643 61.8691C326.969 65.2223 321.324 67.6874 316.17 69.4795C316.637 70.5408 317.029 71.9466 317.409 73.6238C319.073 80.8385 320.108 94.1114 320.521 113.389C321.031 133.918 321.122 144.181 321.122 144.181C331.934 141.076 341.353 138.622 349.326 136.649C348.971 136.011 348.245 133.226 347.146 128.313C345.517 121.214 344.159 114.277 343.029 107.306C341.694 98.9782 341.215 94.0512 341.733 92.4944L358.394 87.9893C360.007 92.1758 362.159 99.3629 364.747 109.72C367.121 119.266 368.1 125.877 369.125 129.098C369.363 129.809 369.749 130.341 374.393 129.394C380.374 128.16 384.91 126.902 387.884 125.561C388.801 125.169 388.975 121.131 388.578 113.595C388.099 105.633 387.378 99.7602 385.714 92.4594Z" fill="#FFF64D"/>
<path d="M182.75 124.883C181.122 116.993 177.909 107.293 172.133 99.4658C166.047 91.159 153.892 85.252 137.071 81.2683L113.126 76.1024L98.4164 73.0175C88.5507 70.8154 86.8982 70.6039 84.7423 67.736C82.5899 64.8714 84.5752 59.6246 93.9785 57.8727C105.202 55.7627 121.517 57.4044 142.606 62.7521C145.188 63.395 147.835 64.1073 150.563 64.8724L160.067 51.8677L153.016 2.74589L146.234 2.18182C138.077 1.48841 129.904 1.32127 121.739 1.59757C108.682 2.0271 95.6561 3.59505 82.792 6.00327C68.8377 8.62243 57.8925 12.2973 50.2817 16.984L49.7875 17.3095L49.3142 17.6713C40.8102 24.6469 31.647 37.9421 36.4952 61.479C38.4043 70.7615 42.0363 79.5172 47.2522 87.5909C48.1186 88.9327 49.0127 90.2545 49.9621 91.5564C56.0021 99.6117 66.8904 105.498 82.4258 109.144C82.4258 109.144 92.5172 111.551 102.88 113.351C113.24 115.155 129.232 114.312 129.25 119.955C129.259 122.771 123.202 125.141 110.407 127.49C98.0591 129.841 83.6029 130.3 67.4548 128.962L55.083 140.507L56.0245 145.966L64.3355 194.069L100.518 185.85L147.258 175.225C159.166 172.597 168.847 166.565 175.907 157.269C182.849 148.136 185.221 136.928 182.75 124.883Z" fill="#A8AC06"/>
<path d="M223.416 61.3972C220.376 62.7179 217.255 63.8105 214.009 64.3373C211.281 64.7637 209.248 64.6259 208.19 64.0756C207.8 63.2523 206.948 61.2287 206.948 61.2287L204.835 53.1214C204.313 50.1273 204.379 48.9787 204.422 48.4292C205.757 47.6783 208.558 46.517 214.235 45.5909C218.115 45.0063 220.038 45.2072 220.994 45.4103C221.371 46.3792 221.942 48.3604 222.668 52.5125C223.56 57.7033 223.523 60.189 223.416 61.3972ZM237.268 24.649C210.626 18.6516 165.846 32.2514 164.121 34.2807L157.608 42.437L165.77 82.8365C170.848 112.083 171.83 122.724 171.745 126.521L171.631 133.451L201.003 129.534L208.448 118.138C208.258 118.38 197.407 86.7807 197.407 86.7807C206.09 87.1916 213.214 87.3379 223.418 85.72C234.193 84.0081 241.771 81.9855 246.543 79.5522C250.986 77.3547 251.499 71.9786 251.661 67.123C251.721 62.0458 251.473 56.7675 250.549 51.3814C248.024 36.8874 244.147 26.1958 237.268 24.649Z" fill="#A8AC06"/>
<path d="M371.57 84.4753C370.873 84.0202 370.169 83.8066 369.453 83.8314C366.95 83.9362 365.194 87.1236 365.614 90.8059C365.905 93.3732 367.166 95.6604 368.88 96.7652C369.577 97.2137 370.284 97.4239 370.99 97.4025C373.493 97.3109 375.256 94.1136 374.836 90.4346C374.541 87.8706 373.294 85.59 371.57 84.4753Z" fill="#A8AC06"/>
<path d="M331.518 74.773C331.181 74.5586 330.838 74.4601 330.499 74.4741C329.291 74.5165 328.43 76.0539 328.643 77.8371C328.785 79.0745 329.388 80.1817 330.22 80.716C330.557 80.9336 330.907 81.042 331.243 81.0248C332.448 80.9791 333.295 79.4384 333.099 77.665C332.96 76.4145 332.354 75.3138 331.518 74.773Z" fill="#A8AC06"/>
<path d="M334.363 117.128C333.447 116.524 332.501 116.241 331.559 116.277C328.232 116.416 325.894 120.648 326.456 125.531C326.844 128.945 328.505 131.992 330.791 133.457C331.718 134.067 332.66 134.343 333.599 134.304C336.922 134.168 339.27 129.943 338.705 125.06C338.317 121.646 336.656 118.608 334.363 117.128Z" fill="#A8AC06"/>
<path d="M287.161 66.1361C286.282 68.7494 283.738 74.5736 276.491 87.5308C275.561 89.201 274.612 90.292 270.924 89.1484C268.789 88.4979 266.801 87.334 264.926 85.9745C264.841 85.1506 264.728 83.4 265.163 79.7649C265.733 74.8454 266.995 69.5403 268.831 64.0785C270.145 60.1734 271.195 58.1024 271.922 56.9225C272.237 56.9914 272.636 57.0666 272.636 57.0666L280.514 60.1834C280.611 60.203 285.458 62.0424 287.92 62.9736C287.887 63.5959 287.713 64.5329 287.161 66.1361ZM315.87 51.5258C313.741 47.3537 280.488 28.2643 255.918 36.7191C251.1 38.6528 247.336 44.4035 243.609 55.3969C241.166 62.6606 239.015 71.5984 237.219 81.9155C235.607 91.5008 234.825 98.506 234.878 103.312C234.963 107.402 237.452 111.229 242.603 115.047C246.848 118.212 251.704 120.601 257.486 122.382C268.901 125.898 278.648 125.433 286.468 121.046C292.111 117.86 297.72 112.012 303.615 103.152C308.899 95.2598 313.115 86.7146 316.09 77.8246C320.362 65.1222 320.305 56.7553 315.887 51.5126L315.87 51.5258Z" fill="#A8AC06"/>
<path d="M297.524 66.2695C296.137 70.3733 292.448 77.8118 286.469 88.5188C284.055 92.84 280.142 94.2123 274.655 92.5266C271.712 91.6197 268.878 90.1797 266.226 88.0674C264.941 87.0906 264.571 83.636 265.259 77.7995C265.903 72.3072 267.278 66.681 269.159 61.1363C270.96 55.7607 272.774 52.255 274.535 50.583C275.15 49.9991 276.858 50.035 279.592 50.8729C281.249 51.3822 284.006 52.4583 288.001 54.154C291.884 55.6976 294.665 56.7803 296.325 57.3094C298.863 58.0915 299.25 61.1058 297.524 66.2695ZM292.415 41.6268C279.219 37.5554 270.093 36.2221 263.303 39.9507C260.183 41.212 257.037 46.3788 253.963 55.5271C251.53 62.7709 249.486 71.4369 247.753 81.3335C246.223 90.3923 245.451 97.2285 245.507 101.869C245.539 104.324 247.466 106.898 251.2 109.67C254.908 112.429 259.25 114.59 264.432 116.184C274.305 119.21 282.591 118.983 289.104 115.308C293.913 112.6 299.067 107.234 304.524 99.0465C309.705 91.2638 312.169 83.0568 314.966 74.7598C318.579 64.0051 318.81 56.9152 315.664 53.1524C313.288 50.5894 303.48 44.9847 292.415 41.6268Z" fill="#FFF64D"/>
<path d="M256.934 93.2747C254.664 92.5021 251.911 94.7486 250.918 98.1726C250.222 100.554 250.486 103.015 251.606 104.594C252.058 105.235 252.613 105.668 253.258 105.881C255.521 106.644 258.284 104.394 259.278 100.98C259.967 98.5926 259.706 96.141 258.583 94.5617C258.127 93.9174 257.576 93.4884 256.934 93.2747Z" fill="#A8AC06"/>
<path d="M298.345 80.3636C297.218 79.8697 295.694 80.8923 295.021 82.6113C294.54 83.8137 294.554 85.0944 295.059 85.9503C295.258 86.304 295.532 86.545 295.844 86.6833C296.967 87.1838 298.498 86.1479 299.178 84.4288C299.645 83.2298 299.635 81.9591 299.133 81.0932C298.931 80.7428 298.664 80.5018 298.345 80.3636Z" fill="#A8AC06"/>
<path d="M524.244 70.1229C523.623 69.7007 522.978 69.497 522.334 69.5315C520.074 69.6524 518.498 72.7169 518.879 76.2371C519.153 78.6952 520.289 80.8635 521.85 81.9157C522.478 82.3313 523.126 82.5284 523.763 82.4972C526.02 82.3796 527.61 79.3085 527.218 75.7916C526.941 73.3368 525.802 71.1718 524.244 70.1229Z" fill="#A8AC06"/>
<path d="M505.038 58.13C504.663 57.8793 504.279 57.7577 503.898 57.7751C502.544 57.8476 501.605 59.683 501.829 61.7806C502 63.2395 502.676 64.5419 503.602 65.1719C503.98 65.4225 504.365 65.5474 504.749 65.5201C506.092 65.4509 507.042 63.6188 506.811 61.518C506.647 60.049 505.971 58.7599 505.038 58.13Z" fill="#A8AC06"/>
<path d="M493.128 118.233C492.587 117.853 492.019 117.683 491.458 117.714C489.485 117.814 488.101 120.498 488.433 123.584C488.671 125.718 489.671 127.632 491.027 128.539C491.586 128.908 492.144 129.079 492.705 129.058C494.675 128.948 496.069 126.268 495.727 123.188C495.488 121.037 494.499 119.137 493.128 118.233Z" fill="#A8AC06"/>
<path d="M448.758 82.863C448.084 82.3383 447.353 82.0189 446.608 81.9378C443.951 81.6492 441.654 84.4275 441.61 88.0215C441.583 90.5135 442.605 92.884 444.288 94.2073C444.958 94.7419 445.686 95.0547 446.445 95.139C449.101 95.4243 451.399 92.646 451.44 89.052C451.463 86.5601 450.448 84.1895 448.758 82.863Z" fill="#A8AC06"/>
<path d="M402.128 44.4437C399.864 44.3163 397.937 47.193 397.9 50.7273C397.88 53.1927 398.756 55.4741 400.182 56.6854C400.755 57.1739 401.369 57.4406 402.01 57.4789C404.26 57.6029 406.211 54.7328 406.231 51.1919C406.244 48.7232 405.389 46.4352 403.952 45.2371C403.386 44.7387 402.766 44.4753 402.128 44.4437Z" fill="#A8AC06"/>
<path d="M455.368 105.717C454.056 105.634 452.919 107.314 452.897 109.392C452.884 110.828 453.398 112.167 454.234 112.87C454.564 113.158 454.928 113.319 455.305 113.338C456.614 113.408 457.752 111.728 457.773 109.653C457.779 108.213 457.28 106.881 456.44 106.178C456.11 105.884 455.749 105.729 455.368 105.717Z" fill="#A8AC06"/>
<path d="M179.131 119.928C177.721 113.15 174.362 106.241 169.365 99.4141C164.833 93.1625 155.072 87.7598 139.88 84.1994C127.241 81.143 114.366 78.802 101.347 75.9318C88.5637 73.0578 81.6758 69.6179 80.818 65.463C80.6492 64.6227 80.5185 63.8089 80.4156 63.0115C79.0522 52.1558 84.5445 45.5112 97.1801 43.13C98.1318 42.9558 99.1183 42.808 100.126 42.68C114.072 40.8882 133.375 43.4532 157.92 50.3818L150.358 4.57754C140.098 3.69355 129.854 3.51117 119.658 4.01705C109.492 4.52287 99.3774 5.71367 89.3582 7.59263C76.2555 10.0609 66.4935 13.3757 59.8815 17.395C50.0201 25.4791 46.6602 37.4804 49.909 53.336C51.5051 61.0769 54.3981 68.2787 58.4461 74.9384C59.532 76.7331 60.6837 78.4846 61.9356 80.1995C66.47 86.2824 75.6275 91.2793 89.3607 94.4954C100.734 97.1145 112.327 99.0545 123.859 101.475C135.367 103.991 141.427 107.442 142.133 111.75C143.457 119.908 135.05 125.752 116.984 129.135C102.909 131.777 86.6068 132.191 68.1683 130.372L73.6764 162.34L76.2682 177.386L92.1481 173.787L150.148 160.631C160.139 158.398 168.101 153.26 173.761 145.781C179.324 138.481 181.16 129.743 179.131 119.928Z" fill="#FFF64D"/>
<path d="M146.724 41.745C146.088 41.2269 145.399 40.9372 144.689 40.9024C142.199 40.7458 140.092 43.7354 140.104 47.4351C140.112 50.0229 141.117 52.4232 142.703 53.7003C143.348 54.2151 144.031 54.4982 144.741 54.5496C147.238 54.6995 149.337 51.7 149.326 48.0003C149.318 45.4191 148.32 43.0155 146.724 41.745Z" fill="#A8AC06"/>
<path d="M71.4338 71.3127C70.8198 70.96 70.1961 70.8157 69.5973 70.8866C67.4721 71.1064 66.1754 73.9156 66.7633 77.0316C67.1682 79.1982 68.3824 81.0719 69.9155 81.9256C70.5363 82.2684 71.1565 82.4126 71.7553 82.3418C73.8702 82.1253 75.1807 79.3029 74.5928 76.1868C74.1845 74.0301 72.9737 72.1498 71.4338 71.3127Z" fill="#A8AC06"/>
<path d="M165.633 116.384C164.686 115.754 163.712 115.452 162.736 115.48C159.294 115.574 156.832 119.945 157.36 125.017C157.731 128.54 159.413 131.707 161.78 133.247C162.727 133.884 163.711 134.196 164.677 134.158C168.119 134.057 170.588 129.697 170.053 124.618C169.675 121.088 167.996 117.924 165.633 116.384Z" fill="#A8AC06"/>
<path d="M69.9149 45.9344C70.182 46.0794 70.4386 46.1947 70.6987 46.3066C71.999 46.8829 73.2913 47.1349 74.5444 46.9931C79.8961 46.4351 83.1603 39.3421 81.6782 31.5184C80.6537 26.0633 77.6022 21.3507 73.7381 19.2048C72.1772 18.3379 70.6282 17.9839 69.112 18.1428C65.5224 18.5248 62.8836 21.8435 61.9696 26.3399C61.5193 28.5582 61.4855 31.0471 61.9679 33.6208C63.0028 39.0792 66.0543 43.805 69.9149 45.9344Z" fill="#A8AC06"/>
<path d="M89.9594 145.635C89.0016 144.946 87.9964 144.611 86.9922 144.613C83.4016 144.627 80.718 149.088 81.1187 154.362C81.3967 158.032 83.0622 161.37 85.4634 163.04C86.4351 163.719 87.4334 164.064 88.4444 164.062C92.0143 164.041 94.7013 159.577 94.3075 154.306C94.0226 150.617 92.371 147.298 89.9594 145.635Z" fill="#A8AC06"/>
<path d="M154.079 142.851C153.59 142.568 153.088 142.46 152.596 142.514C150.89 142.69 149.844 144.959 150.316 147.46C150.651 149.206 151.621 150.713 152.856 151.392C153.352 151.672 153.851 151.784 154.342 151.736C156.049 151.557 157.098 149.294 156.623 146.79C156.292 145.037 155.325 143.534 154.079 142.851Z" fill="#A8AC06"/>
<path d="M231.083 61.6835C227.227 63.5422 223.041 64.8687 218.559 65.577C213.346 66.3863 209.743 65.8184 207.41 63.9901C206.723 63.4256 205.848 61.6172 204.768 58.6409C203.699 55.6547 202.939 52.7042 202.403 49.6207C201.507 44.463 201.754 41.2554 203.232 40.054C205.716 38.0428 210.31 36.4473 216.772 35.4168C222.421 34.5272 226.325 34.8693 228.733 36.4162C229.896 37.198 231.07 40.7533 232.181 47.0921C233.672 55.7766 233.296 60.6658 231.083 61.6835ZM238.199 26.7773C231.554 23.8332 193.456 24.4575 167.417 35.3711C169.604 46.0531 175.289 76.9858 175.277 77.4227C175.291 77.4557 182.251 122.16 182.006 122.393L206.766 118.68C206.766 118.68 194.852 83.7535 192.884 76.8639C202.931 78.2481 212.858 77.6237 225.983 75.559C236.111 73.9511 243.267 72.0454 247.291 69.9613C248.443 69.3961 249.031 66.9158 249.169 62.464C249.197 58.0555 248.787 53.2144 247.871 47.8747C245.755 35.7462 242.478 28.6708 238.199 26.7773Z" fill="#FFF64D"/>
<path d="M240.606 39.0993C240.113 38.8224 239.614 38.7143 239.136 38.7684C237.437 38.9707 236.426 41.2266 236.922 43.7074C237.267 45.4308 238.258 46.931 239.486 47.5868C239.989 47.8537 240.484 47.9585 240.965 47.9078C242.661 47.7022 243.669 45.4463 243.169 42.9721C242.825 41.2487 241.84 39.7518 240.606 39.0993Z" fill="#A8AC06"/>
<path d="M188.242 106.829C187.698 106.522 187.147 106.404 186.617 106.455C184.741 106.678 183.62 109.185 184.172 111.924C184.555 113.833 185.648 115.475 187.014 116.21C187.566 116.503 188.117 116.631 188.636 116.567C190.522 116.348 191.636 113.85 191.084 111.111C190.704 109.196 189.612 107.55 188.242 106.829Z" fill="#A8AC06"/>
<path d="M191.938 50.3567C191.133 49.8059 190.277 49.4834 189.404 49.3894C186.307 49.0521 183.812 51.7714 183.948 55.3287C184.046 57.8139 185.358 60.2003 187.371 61.5461C188.18 62.0937 189.039 62.426 189.916 62.5167C192.999 62.8574 195.501 60.1381 195.355 56.5708C195.257 54.0824 193.951 51.7058 191.938 50.3567Z" fill="#A8AC06"/>
</g>
<g filter="url(#filter1_d_2497_9540)">
<path d="M266.308 152.818V156.212L265.185 181.09L279.882 178.819V189H259.521V185.606L258.397 151.695L266.308 152.818ZM296.605 163.39C303.116 163.39 306.371 169.892 306.371 182.896V186.559L305.15 187.779V189L286.864 187.779H283.202L281.981 176.793H283.202L288.085 175.597H296.605L299.047 173.155V171.935L296.605 169.493H294.188C292.561 169.493 291.747 170.714 291.747 173.155H290.526L281.981 171.935V164.61L296.605 163.39ZM292.968 179.234V182.896L295.385 185.338L301.488 184.117V178.014L295.385 176.793L292.968 179.234ZM315.453 161.925H318.163L316.82 180.87H318.163L326.293 182.237L330.346 180.87L324.926 163.268H326.293L331.713 161.925H333.056L335.766 164.635V182.237C335.766 185.59 330.354 187.844 319.53 189C314.81 189 311.197 186.746 308.69 182.237V163.268L315.453 161.925ZM341.796 163.585L348.144 162.315C348.144 164.854 349.421 166.124 351.977 166.124C359.594 167.166 363.402 168.858 363.402 171.202V178.844C363.402 185.077 362.133 188.463 359.594 189H354.516L351.977 186.461V173.741H348.144V189H337.987L343.065 167.394L341.796 166.124V163.585ZM374.828 163.146H380.712C386.978 163.146 390.111 167.06 390.111 174.889H380.712L381.884 173.717V167.833L376 166.661L373.656 184.288H378.368C379.931 184.288 380.712 183.116 380.712 180.772H386.596L387.768 179.601H388.939L390.111 186.656L370.141 189H367.772L365.429 186.656V174.889C365.429 167.06 368.562 163.146 374.828 163.146ZM399.413 164.098V166.588L405.639 165.343H408.129C410.619 165.343 411.864 171.983 411.864 185.265V189H405.639L406.884 180.284V175.304H396.923V186.51H391.942V155.357H400.658L399.413 164.098ZM417.187 153.526C420.849 153.526 423.135 156.863 424.047 163.536H414.452V156.383L417.187 153.526ZM424.047 167.54L422.68 189H414.452V167.54H424.047ZM430.517 163.585L436.864 162.315C436.864 164.854 438.142 166.124 440.697 166.124C448.314 167.166 452.123 168.858 452.123 171.202V178.844C452.123 185.077 450.854 188.463 448.314 189H443.236L440.697 186.461V173.741H436.864V189H426.708L431.786 167.394L430.517 166.124V163.585ZM456.786 165.88H460.741L469.97 167.149V164.635H477.88C477.31 171.324 476.431 174.669 475.243 174.669C470.849 174.669 468.651 172.993 468.651 169.64H466.015L463.378 172.154V179.674L466.015 182.188H469.97L468.651 175.914L476.562 177.184V190.953C476.562 196.812 470.409 199.742 458.104 199.742H455.468V198.473L454.149 192.198L455.468 188.463C461.62 188.463 464.696 190.546 464.696 194.713H468.651L469.97 188.463V184.703H458.104C455.468 183.857 454.149 181.35 454.149 177.184L456.786 165.88ZM499.926 151.5H503.319L520.385 152.647V154.918L519.237 162.853L505.59 159.459H503.319L501.049 161.729V164L519.237 174.229L521.508 181.041C521.508 186.347 512.418 189 494.237 189V186.729L495.385 178.771L506.737 179.918C510.66 179.918 512.93 178.779 513.549 176.5C500.674 171.373 494.237 165.693 494.237 159.459C494.237 155.829 496.133 153.176 499.926 151.5ZM537.401 162.657V163.854L538.598 162.657L544.579 163.854H548.168L549.364 169.835V175.816C547.2 184.605 544.408 189 540.99 189H533.788C527.408 189 524.218 182.213 524.218 168.639C524.218 165.449 528.612 163.455 537.401 162.657ZM532.592 166.246L530.199 169.835V171.031C530.199 176.923 531.396 180.121 533.788 180.626H538.598C540.535 180.626 541.731 176.63 542.187 168.639L532.592 166.246ZM564.843 162.657V163.854L566.039 162.657L572.021 163.854H575.609L576.806 169.835V175.816C574.641 184.605 571.85 189 568.432 189H561.229C554.849 189 551.659 182.213 551.659 168.639C551.659 165.449 556.054 163.455 564.843 162.657ZM560.033 166.246L557.641 169.835V171.031C557.641 176.923 558.837 180.121 561.229 180.626H566.039C567.976 180.626 569.172 176.63 569.628 168.639L560.033 166.246ZM582.909 163.585L589.257 162.315C589.257 164.854 590.535 166.124 593.09 166.124C600.707 167.166 604.516 168.858 604.516 171.202V178.844C604.516 185.077 603.246 188.463 600.707 189H595.629L593.09 186.461V173.741H589.257V189H579.101L584.179 167.394L582.909 166.124V163.585ZM615.917 151.5V152.672L612.401 177.281L607.714 178.453V166.734L606.542 152.672L615.917 151.5ZM613.573 183.141L614.745 187.828L613.573 189H606.542V183.141H613.573Z" fill="white"/>
</g>
<g filter="url(#filter2_d_2497_9540)">
<path d="M549.835 84.5499L557.874 124.451C560.611 124.451 564.36 110.634 569.122 83H572.33C574.47 83 575.539 84.5389 575.539 87.6167C569.444 118.306 565.165 133.651 562.704 133.651H546.626L537 84.5499H549.835Z" fill="#FFCEF3"/>
<path d="M597.655 83H601.312C613.48 83 619.564 87.6606 619.564 96.9819L595.826 117.922L597.655 119.67H604.97C615.32 119.67 623.233 118.504 628.707 116.174V117.922C627.074 126.078 625.245 130.156 623.221 130.156L583.026 133.651V119.67L606.798 96.9819L604.97 95.2342H601.312L579.369 96.9819C579.369 87.6606 585.464 83 597.655 83Z" fill="#FFCEF3"/>
<path d="M550.815 84.3524L550.653 83.5499H549.835H537H535.785L536.019 84.7423L545.645 133.844L545.803 134.651H546.626H562.704C563.522 134.651 564.121 134.047 564.509 133.537C564.943 132.965 565.373 132.163 565.806 131.176C566.678 129.192 567.649 126.26 568.722 122.411C570.872 114.701 573.471 103.162 576.52 87.8115L576.539 87.715V87.6167C576.539 85.9928 576.263 84.597 575.558 83.5834C574.808 82.5039 573.674 82 572.33 82H569.122H568.279L568.136 82.8302C565.757 96.6396 563.636 106.965 561.774 113.826C560.841 117.264 559.985 119.788 559.211 121.435C558.968 121.954 558.742 122.364 558.537 122.68L550.815 84.3524ZM620.226 97.7318L620.564 97.4332V96.9819C620.564 92.0851 618.952 88.2626 615.609 85.7016C612.317 83.1793 607.496 82 601.312 82H597.655C591.46 82 586.631 83.1792 583.333 85.7011C579.984 88.2618 578.369 92.0844 578.369 96.9819V98.0647L579.448 97.9787L601.352 96.2342H604.569L605.35 96.9814L582.336 118.946L582.026 119.242V119.67V133.651V134.742L583.113 134.648L623.27 131.155C624.123 131.139 624.845 130.697 625.43 130.078C626.02 129.453 626.544 128.575 627.023 127.507C627.984 125.364 628.867 122.218 629.688 118.118L629.707 118.021V117.922V116.174V114.662L628.316 115.254C623.025 117.506 615.271 118.67 604.97 118.67H598.056L597.305 117.951L620.226 97.7318Z" stroke="#DA2CAF" stroke-width="2"/>
</g>
<defs>
<filter id="filter0_d_2497_9540" x="0.574219" y="1.47086" width="705.698" height="238.467" filterUnits="userSpaceOnUse" color-interpolation-filters="sRGB">
<feFlood flood-opacity="0" result="BackgroundImageFix"/>
<feColorMatrix in="SourceAlpha" type="matrix" values="0 0 0 0 0 0 0 0 0 0 0 0 0 0 0 0 0 0 127 0" result="hardAlpha"/>
<feOffset dx="1" dy="5"/>
<feComposite in2="hardAlpha" operator="out"/>
<feColorMatrix type="matrix" values="0 0 0 0 0.772005 0 0 0 0 0.760087 0 0 0 0 0.628988 0 0 0 1 0"/>
<feBlend mode="normal" in2="BackgroundImageFix" result="effect1_dropShadow_2497_9540"/>
<feBlend mode="normal" in="SourceGraphic" in2="effect1_dropShadow_2497_9540" result="shape"/>
</filter>
<filter id="filter1_d_2497_9540" x="253.397" y="151.5" width="362.52" height="54.2422" filterUnits="userSpaceOnUse" color-interpolation-filters="sRGB">
<feFlood flood-opacity="0" result="BackgroundImageFix"/>
<feColorMatrix in="SourceAlpha" type="matrix" values="0 0 0 0 0 0 0 0 0 0 0 0 0 0 0 0 0 0 127 0" result="hardAlpha"/>
<feOffset dx="-5" dy="6"/>
<feComposite in2="hardAlpha" operator="out"/>
<feColorMatrix type="matrix" values="0 0 0 0 0.0485626 0 0 0 0 0.132582 0 0 0 0 0.287695 0 0 0 1 0"/>
<feBlend mode="normal" in2="BackgroundImageFix" result="effect1_dropShadow_2497_9540"/>
<feBlend mode="normal" in="SourceGraphic" in2="effect1_dropShadow_2497_9540" result="shape"/>
</filter>
<filter id="filter2_d_2497_9540" x="532.57" y="81" width="98.1367" height="57.8329" filterUnits="userSpaceOnUse" color-interpolation-filters="sRGB">
<feFlood flood-opacity="0" result="BackgroundImageFix"/>
<feColorMatrix in="SourceAlpha" type="matrix" values="0 0 0 0 0 0 0 0 0 0 0 0 0 0 0 0 0 0 127 0" result="hardAlpha"/>
<feOffset dx="-2" dy="3"/>
<feComposite in2="hardAlpha" operator="out"/>
<feColorMatrix type="matrix" values="0 0 0 0 0.854902 0 0 0 0 0.172549 0 0 0 0 0.686275 0 0 0 1 0"/>
<feBlend mode="normal" in2="BackgroundImageFix" result="effect1_dropShadow_2497_9540"/>
<feBlend mode="normal" in="SourceGraphic" in2="effect1_dropShadow_2497_9540" result="shape"/>
</filter>
</defs>
</svg>
