<svg width="916" height="540" viewBox="0 0 916 540" fill="none" xmlns="http://www.w3.org/2000/svg">
<path d="M8.046 430.925C8.718 431.045 9.288 431.399 9.756 431.987C10.224 432.575 10.458 433.241 10.458 433.985C10.458 434.621 10.29 435.197 9.954 435.713C9.63 436.217 9.156 436.619 8.532 436.919C7.908 437.207 7.182 437.351 6.354 437.351H1.35V424.841H6.12C6.972 424.841 7.704 424.985 8.316 425.273C8.928 425.561 9.39 425.951 9.702 426.443C10.014 426.923 10.17 427.463 10.17 428.063C10.17 428.783 9.978 429.383 9.594 429.863C9.21 430.343 8.694 430.697 8.046 430.925ZM3.402 430.097H5.94C6.612 430.097 7.134 429.947 7.506 429.647C7.89 429.335 8.082 428.891 8.082 428.315C8.082 427.751 7.89 427.313 7.506 427.001C7.134 426.677 6.612 426.515 5.94 426.515H3.402V430.097ZM6.174 435.677C6.87 435.677 7.416 435.509 7.812 435.173C8.208 434.837 8.406 434.369 8.406 433.769C8.406 433.157 8.196 432.671 7.776 432.311C7.356 431.951 6.798 431.771 6.102 431.771H3.402V435.677H6.174ZM14.7399 428.873C15.0399 428.369 15.4359 427.979 15.9279 427.703C16.4319 427.415 17.0259 427.271 17.7099 427.271V429.395H17.1879C16.3839 429.395 15.7719 429.599 15.3519 430.007C14.9439 430.415 14.7399 431.123 14.7399 432.131V437.351H12.6879V427.433H14.7399V428.873ZM20.6401 426.119C20.2681 426.119 19.9561 425.993 19.7041 425.741C19.4521 425.489 19.3261 425.177 19.3261 424.805C19.3261 424.433 19.4521 424.121 19.7041 423.869C19.9561 423.617 20.2681 423.491 20.6401 423.491C21.0001 423.491 21.3061 423.617 21.5581 423.869C21.8101 424.121 21.9361 424.433 21.9361 424.805C21.9361 425.177 21.8101 425.489 21.5581 425.741C21.3061 425.993 21.0001 426.119 20.6401 426.119ZM21.6481 427.433V437.351H19.5961V427.433H21.6481ZM23.6582 432.347C23.6582 431.351 23.8622 430.469 24.2702 429.701C24.6902 428.933 25.2542 428.339 25.9622 427.919C26.6822 427.487 27.4802 427.271 28.3562 427.271C29.0042 427.271 29.6402 427.415 30.2642 427.703C30.9002 427.979 31.4042 428.351 31.7762 428.819V424.031H33.8462V437.351H31.7762V435.857C31.4402 436.337 30.9722 436.733 30.3722 437.045C29.7842 437.357 29.1062 437.513 28.3382 437.513C27.4742 437.513 26.6822 437.297 25.9622 436.865C25.2542 436.421 24.6902 435.809 24.2702 435.029C23.8622 434.237 23.6582 433.343 23.6582 432.347ZM31.7762 432.383C31.7762 431.699 31.6322 431.105 31.3442 430.601C31.0682 430.097 30.7022 429.713 30.2462 429.449C29.7902 429.185 29.2982 429.053 28.7702 429.053C28.2422 429.053 27.7502 429.185 27.2942 429.449C26.8382 429.701 26.4662 430.079 26.1782 430.583C25.9022 431.075 25.7642 431.663 25.7642 432.347C25.7642 433.031 25.9022 433.631 26.1782 434.147C26.4662 434.663 26.8382 435.059 27.2942 435.335C27.7622 435.599 28.2542 435.731 28.7702 435.731C29.2982 435.731 29.7902 435.599 30.2462 435.335C30.7022 435.071 31.0682 434.687 31.3442 434.183C31.6322 433.667 31.7762 433.067 31.7762 432.383ZM40.5374 427.271C41.3054 427.271 41.9834 427.427 42.5714 427.739C43.1714 428.039 43.6394 428.417 43.9754 428.873V427.433H46.0454V437.513C46.0454 438.425 45.8534 439.235 45.4694 439.943C45.0854 440.663 44.5274 441.227 43.7954 441.635C43.0754 442.043 42.2114 442.247 41.2034 442.247C39.8594 442.247 38.7434 441.929 37.8554 441.293C36.9674 440.669 36.4634 439.817 36.3434 438.737H38.3774C38.5334 439.253 38.8634 439.667 39.3674 439.979C39.8834 440.303 40.4954 440.465 41.2034 440.465C42.0314 440.465 42.6974 440.213 43.2014 439.709C43.7174 439.205 43.9754 438.473 43.9754 437.513V435.857C43.6274 436.325 43.1534 436.721 42.5534 437.045C41.9654 437.357 41.2934 437.513 40.5374 437.513C39.6734 437.513 38.8814 437.297 38.1614 436.865C37.4534 436.421 36.8894 435.809 36.4694 435.029C36.0614 434.237 35.8574 433.343 35.8574 432.347C35.8574 431.351 36.0614 430.469 36.4694 429.701C36.8894 428.933 37.4534 428.339 38.1614 427.919C38.8814 427.487 39.6734 427.271 40.5374 427.271ZM43.9754 432.383C43.9754 431.699 43.8314 431.105 43.5434 430.601C43.2674 430.097 42.9014 429.713 42.4454 429.449C41.9894 429.185 41.4974 429.053 40.9694 429.053C40.4414 429.053 39.9494 429.185 39.4934 429.449C39.0374 429.701 38.6654 430.079 38.3774 430.583C38.1014 431.075 37.9634 431.663 37.9634 432.347C37.9634 433.031 38.1014 433.631 38.3774 434.147C38.6654 434.663 39.0374 435.059 39.4934 435.335C39.9614 435.599 40.4534 435.731 40.9694 435.731C41.4974 435.731 41.9894 435.599 42.4454 435.335C42.9014 435.071 43.2674 434.687 43.5434 434.183C43.8314 433.667 43.9754 433.067 43.9754 432.383ZM57.8306 432.149C57.8306 432.521 57.8066 432.857 57.7586 433.157H50.1806C50.2406 433.949 50.5346 434.585 51.0626 435.065C51.5906 435.545 52.2386 435.785 53.0066 435.785C54.1106 435.785 54.8906 435.323 55.3466 434.399H57.5606C57.2606 435.311 56.7146 436.061 55.9226 436.649C55.1426 437.225 54.1706 437.513 53.0066 437.513C52.0586 437.513 51.2066 437.303 50.4506 436.883C49.7066 436.451 49.1186 435.851 48.6866 435.083C48.2666 434.303 48.0566 433.403 48.0566 432.383C48.0566 431.363 48.2606 430.469 48.6686 429.701C49.0886 428.921 49.6706 428.321 50.4146 427.901C51.1706 427.481 52.0346 427.271 53.0066 427.271C53.9426 427.271 54.7766 427.475 55.5086 427.883C56.2406 428.291 56.8106 428.867 57.2186 429.611C57.6266 430.343 57.8306 431.189 57.8306 432.149ZM55.6886 431.501C55.6766 430.745 55.4066 430.139 54.8786 429.683C54.3506 429.227 53.6966 428.999 52.9166 428.999C52.2086 428.999 51.6026 429.227 51.0986 429.683C50.5946 430.127 50.2946 430.733 50.1986 431.501H55.6886ZM59.166 432.347C59.166 431.351 59.37 430.469 59.778 429.701C60.198 428.933 60.762 428.339 61.47 427.919C62.19 427.487 62.988 427.271 63.864 427.271C64.512 427.271 65.148 427.415 65.772 427.703C66.408 427.979 66.912 428.351 67.284 428.819V424.031H69.354V437.351H67.284V435.857C66.948 436.337 66.48 436.733 65.88 437.045C65.292 437.357 64.614 437.513 63.846 437.513C62.982 437.513 62.19 437.297 61.47 436.865C60.762 436.421 60.198 435.809 59.778 435.029C59.37 434.237 59.166 433.343 59.166 432.347ZM67.284 432.383C67.284 431.699 67.14 431.105 66.852 430.601C66.576 430.097 66.21 429.713 65.754 429.449C65.298 429.185 64.806 429.053 64.278 429.053C63.75 429.053 63.258 429.185 62.802 429.449C62.346 429.701 61.974 430.079 61.686 430.583C61.41 431.075 61.272 431.663 61.272 432.347C61.272 433.031 61.41 433.631 61.686 434.147C61.974 434.663 62.346 435.059 62.802 435.335C63.27 435.599 63.762 435.731 64.278 435.731C64.806 435.731 65.298 435.599 65.754 435.335C66.21 435.071 66.576 434.687 66.852 434.183C67.14 433.667 67.284 433.067 67.284 432.383ZM85.167 433.787C85.167 434.387 85.017 434.951 84.717 435.479C84.429 436.007 83.997 436.451 83.421 436.811C82.857 437.171 82.185 437.387 81.405 437.459V438.917H80.235V437.459C79.107 437.351 78.195 436.997 77.499 436.397C76.803 435.797 76.455 435.005 76.455 434.021H78.651C78.687 434.489 78.837 434.879 79.101 435.191C79.365 435.491 79.743 435.683 80.235 435.767V431.807C79.431 431.603 78.777 431.399 78.273 431.195C77.769 430.979 77.337 430.643 76.977 430.187C76.629 429.731 76.455 429.107 76.455 428.315C76.455 427.319 76.803 426.497 77.499 425.849C78.195 425.189 79.107 424.805 80.235 424.697V423.239H81.405V424.697C82.461 424.793 83.307 425.129 83.943 425.705C84.591 426.269 84.957 427.049 85.041 428.045H82.845C82.809 427.673 82.665 427.343 82.413 427.055C82.161 426.755 81.825 426.551 81.405 426.443V430.331C82.209 430.523 82.863 430.727 83.367 430.943C83.871 431.147 84.297 431.477 84.645 431.933C84.993 432.377 85.167 432.995 85.167 433.787ZM78.543 428.207C78.543 428.699 78.687 429.083 78.975 429.359C79.275 429.635 79.695 429.857 80.235 430.025V426.389C79.719 426.449 79.305 426.635 78.993 426.947C78.693 427.259 78.543 427.679 78.543 428.207ZM81.405 435.767C81.933 435.683 82.347 435.473 82.647 435.137C82.947 434.789 83.097 434.375 83.097 433.895C83.097 433.415 82.947 433.043 82.647 432.779C82.359 432.503 81.945 432.281 81.405 432.113V435.767ZM92.554 437.477C91.714 437.477 90.958 437.333 90.286 437.045C89.614 436.745 89.086 436.325 88.702 435.785C88.318 435.245 88.126 434.615 88.126 433.895H90.322C90.37 434.435 90.58 434.879 90.952 435.227C91.336 435.575 91.87 435.749 92.554 435.749C93.262 435.749 93.814 435.581 94.21 435.245C94.606 434.897 94.804 434.453 94.804 433.913C94.804 433.493 94.678 433.151 94.426 432.887C94.186 432.623 93.88 432.419 93.508 432.275C93.148 432.131 92.644 431.975 91.996 431.807C91.18 431.591 90.514 431.375 89.998 431.159C89.494 430.931 89.062 430.583 88.702 430.115C88.342 429.647 88.162 429.023 88.162 428.243C88.162 427.523 88.342 426.893 88.702 426.353C89.062 425.813 89.566 425.399 90.214 425.111C90.862 424.823 91.612 424.679 92.464 424.679C93.676 424.679 94.666 424.985 95.434 425.597C96.214 426.197 96.646 427.025 96.73 428.081H94.462C94.426 427.625 94.21 427.235 93.814 426.911C93.418 426.587 92.896 426.425 92.248 426.425C91.66 426.425 91.18 426.575 90.808 426.875C90.436 427.175 90.25 427.607 90.25 428.171C90.25 428.555 90.364 428.873 90.592 429.125C90.832 429.365 91.132 429.557 91.492 429.701C91.852 429.845 92.344 430.001 92.968 430.169C93.796 430.397 94.468 430.625 94.984 430.853C95.512 431.081 95.956 431.435 96.316 431.915C96.688 432.383 96.874 433.013 96.874 433.805C96.874 434.441 96.7 435.041 96.352 435.605C96.016 436.169 95.518 436.625 94.858 436.973C94.21 437.309 93.442 437.477 92.554 437.477ZM108.043 428.567C108.043 429.203 107.893 429.803 107.593 430.367C107.293 430.931 106.813 431.393 106.153 431.753C105.493 432.101 104.647 432.275 103.615 432.275H101.347V437.351H99.2953V424.841H103.615C104.575 424.841 105.385 425.009 106.045 425.345C106.717 425.669 107.215 426.113 107.539 426.677C107.875 427.241 108.043 427.871 108.043 428.567ZM103.615 430.601C104.395 430.601 104.977 430.427 105.361 430.079C105.745 429.719 105.937 429.215 105.937 428.567C105.937 427.199 105.163 426.515 103.615 426.515H101.347V430.601H103.615ZM115.706 437.477C114.542 437.477 113.468 437.207 112.484 436.667C111.512 436.115 110.738 435.353 110.162 434.381C109.598 433.397 109.316 432.293 109.316 431.069C109.316 429.845 109.598 428.747 110.162 427.775C110.738 426.803 111.512 426.047 112.484 425.507C113.468 424.955 114.542 424.679 115.706 424.679C116.882 424.679 117.956 424.955 118.928 425.507C119.912 426.047 120.686 426.803 121.25 427.775C121.814 428.747 122.096 429.845 122.096 431.069C122.096 432.293 121.814 433.397 121.25 434.381C120.686 435.353 119.912 436.115 118.928 436.667C117.956 437.207 116.882 437.477 115.706 437.477ZM115.706 435.695C116.534 435.695 117.272 435.509 117.92 435.137C118.568 434.753 119.072 434.213 119.432 433.517C119.804 432.809 119.99 431.993 119.99 431.069C119.99 430.145 119.804 429.335 119.432 428.639C119.072 427.943 118.568 427.409 117.92 427.037C117.272 426.665 116.534 426.479 115.706 426.479C114.878 426.479 114.14 426.665 113.492 427.037C112.844 427.409 112.334 427.943 111.962 428.639C111.602 429.335 111.422 430.145 111.422 431.069C111.422 431.993 111.602 432.809 111.962 433.517C112.334 434.213 112.844 434.753 113.492 435.137C114.14 435.509 114.878 435.695 115.706 435.695ZM134.394 437.351H132.342L126.168 428.009V437.351H124.116V424.823H126.168L132.342 434.147V424.823H134.394V437.351ZM146.142 428.441C145.818 427.817 145.368 427.349 144.792 427.037C144.216 426.713 143.55 426.551 142.794 426.551C141.966 426.551 141.228 426.737 140.58 427.109C139.932 427.481 139.422 428.009 139.05 428.693C138.69 429.377 138.51 430.169 138.51 431.069C138.51 431.969 138.69 432.767 139.05 433.463C139.422 434.147 139.932 434.675 140.58 435.047C141.228 435.419 141.966 435.605 142.794 435.605C143.91 435.605 144.816 435.293 145.512 434.669C146.208 434.045 146.634 433.199 146.79 432.131H142.092V430.493H148.986V432.095C148.854 433.067 148.506 433.961 147.942 434.777C147.39 435.593 146.664 436.247 145.764 436.739C144.876 437.219 143.886 437.459 142.794 437.459C141.618 437.459 140.544 437.189 139.572 436.649C138.6 436.097 137.826 435.335 137.25 434.363C136.686 433.391 136.404 432.293 136.404 431.069C136.404 429.845 136.686 428.747 137.25 427.775C137.826 426.803 138.6 426.047 139.572 425.507C140.556 424.955 141.63 424.679 142.794 424.679C144.126 424.679 145.308 425.009 146.34 425.669C147.384 426.317 148.14 427.241 148.608 428.441H146.142ZM153.062 426.497V430.169H157.382V431.843H153.062V435.677H157.922V437.351H151.01V424.823H157.922V426.497H153.062Z" fill="white"/>
<path d="M7.76367 391.851H9.31641C14.4824 391.851 17.0654 393.921 17.0654 398.062L6.9873 407.364L7.76367 408.14H10.8691C15.2637 408.14 18.623 407.622 20.9473 406.587V407.364C20.2539 410.987 19.4775 412.798 18.6182 412.798L1.55273 414.351V408.14L11.6455 398.062L10.8691 397.285H9.31641L0 398.062C0 393.921 2.58789 391.851 7.76367 391.851ZM32.8271 391.968C30.3369 394.829 29.0918 397.315 29.0918 399.424V400.171L29.8389 399.424H35.8154C38.7939 399.737 40.2832 400.484 40.2832 401.665V405.401C40.2832 409.297 39.043 412.281 36.5625 414.351H29.0918C24.6191 413.687 22.3828 410.952 22.3828 406.148V401.665C22.3828 395.2 25.8643 391.968 32.8271 391.968ZM26.1182 403.906V409.868C26.4307 411.363 28.418 412.11 32.0801 412.11L34.3213 403.159L30.5859 402.412H27.6123L26.1182 403.906ZM45.1758 410.308L45.8496 409.634H46.5234L47.1973 414.351H41.8066V410.308H45.1758ZM58.1104 391.968C63.4033 391.968 66.0498 394.854 66.0498 400.625V404.961C66.0498 411.221 63.1592 414.351 57.3779 414.351L55.9424 412.183V411.465L60.2783 407.129V406.411L55.9424 407.847H53.7744L48.7207 406.411V404.243C48.7207 396.06 51.1279 391.968 55.9424 391.968H58.1104ZM54.4922 397.74V405.694H55.2246C56.8164 405.362 59.2236 403.194 62.4463 399.19C61.1865 396.094 59.9805 394.409 58.8281 394.136H58.1104L54.4922 397.74ZM70.5029 391.851H81.7529L83.2471 393.345V397.857C78.7451 398.247 76.4941 398.994 76.4941 400.098C81.4941 402.071 83.9941 404.82 83.9941 408.345C83.9941 412.349 80.7471 414.351 74.2529 414.351C70.249 413.716 68.2471 411.714 68.2471 408.345H68.9941L74.2529 409.107C76.7529 408.462 78.0029 407.71 78.0029 406.851C78.0029 403.355 75.752 401.607 71.25 401.607C73.4082 399.136 76.4062 397.383 80.2441 396.348L78.75 394.854L67.5 397.857V397.095C68.6914 393.599 69.6924 391.851 70.5029 391.851ZM102.7 391.851L106.157 392.715C102.573 397.813 98.8281 405.025 94.9219 414.351L90.5859 413.487V412.622C95.3711 405.532 99.1211 398.609 101.836 391.851H102.7ZM90.5859 393.594H91.4502L94.0576 396.187V399.644L91.4502 402.237H87.1289L85.4004 398.78C85.4004 395.323 87.1289 393.594 90.5859 393.594ZM88.8574 397.051V399.644H91.4502V397.051H88.8574ZM105.293 405.694C107.93 406.817 109.375 407.974 109.629 409.165V411.758L107.036 414.351H104.429L100.972 410.894C101.353 408.003 102.793 406.558 105.293 406.558V405.694ZM103.564 408.301V410.03L105.293 411.758H106.157L107.036 409.165L106.157 408.301H103.564Z" fill="white"/>
<path d="M744.817 154.158V166.668H742.765V158.1L738.949 166.668H737.527L733.693 158.1V166.668H731.641V154.158H733.855L738.247 163.968L742.621 154.158H744.817ZM746.83 161.664C746.83 160.668 747.034 159.786 747.442 159.018C747.862 158.25 748.426 157.656 749.134 157.236C749.854 156.804 750.646 156.588 751.51 156.588C752.29 156.588 752.968 156.744 753.544 157.056C754.132 157.356 754.6 157.734 754.948 158.19V156.75H757.018V166.668H754.948V165.192C754.6 165.66 754.126 166.05 753.526 166.362C752.926 166.674 752.242 166.83 751.474 166.83C750.622 166.83 749.842 166.614 749.134 166.182C748.426 165.738 747.862 165.126 747.442 164.346C747.034 163.554 746.83 162.66 746.83 161.664ZM754.948 161.7C754.948 161.016 754.804 160.422 754.516 159.918C754.24 159.414 753.874 159.03 753.418 158.766C752.962 158.502 752.47 158.37 751.942 158.37C751.414 158.37 750.922 158.502 750.466 158.766C750.01 159.018 749.638 159.396 749.35 159.9C749.074 160.392 748.936 160.98 748.936 161.664C748.936 162.348 749.074 162.948 749.35 163.464C749.638 163.98 750.01 164.376 750.466 164.652C750.934 164.916 751.426 165.048 751.942 165.048C752.47 165.048 752.962 164.916 753.418 164.652C753.874 164.388 754.24 164.004 754.516 163.5C754.804 162.984 754.948 162.384 754.948 161.7ZM761.765 158.19C762.065 157.686 762.461 157.296 762.953 157.02C763.457 156.732 764.051 156.588 764.735 156.588V158.712H764.213C763.409 158.712 762.797 158.916 762.377 159.324C761.969 159.732 761.765 160.44 761.765 161.448V166.668H759.713V156.75H761.765V158.19ZM770.545 161.718L775.117 166.668H772.345L768.673 162.402V166.668H766.621V153.348H768.673V161.088L772.273 156.75H775.117L770.545 161.718ZM785.678 161.466C785.678 161.838 785.654 162.174 785.606 162.474H778.028C778.088 163.266 778.382 163.902 778.91 164.382C779.438 164.862 780.086 165.102 780.854 165.102C781.958 165.102 782.738 164.64 783.194 163.716H785.408C785.108 164.628 784.562 165.378 783.77 165.966C782.99 166.542 782.018 166.83 780.854 166.83C779.906 166.83 779.054 166.62 778.298 166.2C777.554 165.768 776.966 165.168 776.534 164.4C776.114 163.62 775.904 162.72 775.904 161.7C775.904 160.68 776.108 159.786 776.516 159.018C776.936 158.238 777.518 157.638 778.262 157.218C779.018 156.798 779.882 156.588 780.854 156.588C781.79 156.588 782.624 156.792 783.356 157.2C784.088 157.608 784.658 158.184 785.066 158.928C785.474 159.66 785.678 160.506 785.678 161.466ZM783.536 160.818C783.524 160.062 783.254 159.456 782.726 159C782.198 158.544 781.544 158.316 780.764 158.316C780.056 158.316 779.45 158.544 778.946 159C778.442 159.444 778.142 160.05 778.046 160.818H783.536ZM790.091 158.424V163.914C790.091 164.286 790.175 164.556 790.343 164.724C790.523 164.88 790.823 164.958 791.243 164.958H792.503V166.668H790.883C789.959 166.668 789.251 166.452 788.759 166.02C788.267 165.588 788.021 164.886 788.021 163.914V158.424H786.851V156.75H788.021V154.284H790.091V156.75H792.503V158.424H790.091ZM795.439 155.436C795.067 155.436 794.755 155.31 794.503 155.058C794.251 154.806 794.125 154.494 794.125 154.122C794.125 153.75 794.251 153.438 794.503 153.186C794.755 152.934 795.067 152.808 795.439 152.808C795.799 152.808 796.105 152.934 796.357 153.186C796.609 153.438 796.735 153.75 796.735 154.122C796.735 154.494 796.609 154.806 796.357 155.058C796.105 155.31 795.799 155.436 795.439 155.436ZM796.447 156.75V166.668H794.395V156.75H796.447ZM804.145 156.588C804.925 156.588 805.621 156.75 806.233 157.074C806.857 157.398 807.343 157.878 807.691 158.514C808.039 159.15 808.213 159.918 808.213 160.818V166.668H806.179V161.124C806.179 160.236 805.957 159.558 805.513 159.09C805.069 158.61 804.463 158.37 803.695 158.37C802.927 158.37 802.315 158.61 801.859 159.09C801.415 159.558 801.193 160.236 801.193 161.124V166.668H799.141V156.75H801.193V157.884C801.529 157.476 801.955 157.158 802.471 156.93C802.999 156.702 803.557 156.588 804.145 156.588ZM814.826 156.588C815.594 156.588 816.272 156.744 816.86 157.056C817.46 157.356 817.928 157.734 818.264 158.19V156.75H820.334V166.83C820.334 167.742 820.142 168.552 819.758 169.26C819.374 169.98 818.816 170.544 818.084 170.952C817.364 171.36 816.5 171.564 815.492 171.564C814.148 171.564 813.032 171.246 812.144 170.61C811.256 169.986 810.752 169.134 810.632 168.054H812.666C812.822 168.57 813.152 168.984 813.656 169.296C814.172 169.62 814.784 169.782 815.492 169.782C816.32 169.782 816.986 169.53 817.49 169.026C818.006 168.522 818.264 167.79 818.264 166.83V165.174C817.916 165.642 817.442 166.038 816.842 166.362C816.254 166.674 815.582 166.83 814.826 166.83C813.962 166.83 813.17 166.614 812.45 166.182C811.742 165.738 811.178 165.126 810.758 164.346C810.35 163.554 810.146 162.66 810.146 161.664C810.146 160.668 810.35 159.786 810.758 159.018C811.178 158.25 811.742 157.656 812.45 157.236C813.17 156.804 813.962 156.588 814.826 156.588ZM818.264 161.7C818.264 161.016 818.12 160.422 817.832 159.918C817.556 159.414 817.19 159.03 816.734 158.766C816.278 158.502 815.786 158.37 815.258 158.37C814.73 158.37 814.238 158.502 813.782 158.766C813.326 159.018 812.954 159.396 812.666 159.9C812.39 160.392 812.252 160.98 812.252 161.664C812.252 162.348 812.39 162.948 812.666 163.464C812.954 163.98 813.326 164.376 813.782 164.652C814.25 164.916 814.742 165.048 815.258 165.048C815.786 165.048 816.278 164.916 816.734 164.652C817.19 164.388 817.556 164.004 817.832 163.5C818.12 162.984 818.264 162.384 818.264 161.7Z" fill="white"/>
<path d="M745.674 123.462L738.203 144.351H732.988L732.241 143.604H731.494L741.938 125.703H740.444L730 129.424V121.968H741.938C744.429 122.095 745.674 122.593 745.674 123.462ZM750.596 140.308L751.27 139.634H751.943L752.617 144.351H747.227V140.308H750.596ZM754.888 121.968L767.573 122.715V125.703L766.826 129.424L758.623 126.45H757.129V130.171C757.129 131.167 759.614 131.665 764.585 131.665C769.556 133.286 772.041 134.531 772.041 135.401V137.642C772.041 142.115 766.821 144.351 756.382 144.351L754.141 139.868L759.37 140.615H760.85L764.585 139.868V137.642C764.087 136.148 762.593 135.401 760.103 135.401H754.888V121.968ZM778.53 121.851H782.881C787.725 121.851 790.146 126.206 790.146 134.917C789.18 141.206 786.274 144.351 781.431 144.351H779.98C775.625 144.351 773.447 141.69 773.447 136.367V129.102C773.447 124.268 775.142 121.851 778.53 121.851ZM778.53 123.301L777.798 126.201C778.433 137.334 779.888 142.901 782.163 142.901H783.613L784.331 139.268V131.284C784.331 125.962 783.608 123.301 782.163 123.301H778.53ZM809.087 121.851L812.544 122.715C808.96 127.813 805.215 135.025 801.309 144.351L796.973 143.487V142.622C801.758 135.532 805.508 128.609 808.223 121.851H809.087ZM796.973 123.594H797.837L800.444 126.187V129.644L797.837 132.237H793.516L791.787 128.78C791.787 125.323 793.516 123.594 796.973 123.594ZM795.244 127.051V129.644H797.837V127.051H795.244ZM811.68 135.694C814.316 136.817 815.762 137.974 816.016 139.165V141.758L813.423 144.351H810.815L807.358 140.894C807.739 138.003 809.18 136.558 811.68 136.558V135.694ZM809.951 138.301V140.03L811.68 141.758H812.544L813.423 139.165L812.544 138.301H809.951Z" fill="white"/>
<path d="M740.404 248.441C740.08 247.817 739.63 247.349 739.054 247.037C738.478 246.713 737.812 246.551 737.056 246.551C736.228 246.551 735.49 246.737 734.842 247.109C734.194 247.481 733.684 248.009 733.312 248.693C732.952 249.377 732.772 250.169 732.772 251.069C732.772 251.969 732.952 252.767 733.312 253.463C733.684 254.147 734.194 254.675 734.842 255.047C735.49 255.419 736.228 255.605 737.056 255.605C738.172 255.605 739.078 255.293 739.774 254.669C740.47 254.045 740.896 253.199 741.052 252.131H736.354V250.493H743.248V252.095C743.116 253.067 742.768 253.961 742.204 254.777C741.652 255.593 740.926 256.247 740.026 256.739C739.138 257.219 738.148 257.459 737.056 257.459C735.88 257.459 734.806 257.189 733.834 256.649C732.862 256.097 732.088 255.335 731.512 254.363C730.948 253.391 730.666 252.293 730.666 251.069C730.666 249.845 730.948 248.747 731.512 247.775C732.088 246.803 732.862 246.047 733.834 245.507C734.818 244.955 735.892 244.679 737.056 244.679C738.388 244.679 739.57 245.009 740.602 245.669C741.646 246.317 742.402 247.241 742.87 248.441H740.404ZM744.588 252.347C744.588 251.351 744.792 250.469 745.2 249.701C745.62 248.933 746.184 248.339 746.892 247.919C747.612 247.487 748.404 247.271 749.268 247.271C750.048 247.271 750.726 247.427 751.302 247.739C751.89 248.039 752.358 248.417 752.706 248.873V247.433H754.776V257.351H752.706V255.875C752.358 256.343 751.884 256.733 751.284 257.045C750.684 257.357 750 257.513 749.232 257.513C748.38 257.513 747.6 257.297 746.892 256.865C746.184 256.421 745.62 255.809 745.2 255.029C744.792 254.237 744.588 253.343 744.588 252.347ZM752.706 252.383C752.706 251.699 752.562 251.105 752.274 250.601C751.998 250.097 751.632 249.713 751.176 249.449C750.72 249.185 750.228 249.053 749.7 249.053C749.172 249.053 748.68 249.185 748.224 249.449C747.768 249.701 747.396 250.079 747.108 250.583C746.832 251.075 746.694 251.663 746.694 252.347C746.694 253.031 746.832 253.631 747.108 254.147C747.396 254.663 747.768 255.059 748.224 255.335C748.692 255.599 749.184 255.731 749.7 255.731C750.228 255.731 750.72 255.599 751.176 255.335C751.632 255.071 751.998 254.687 752.274 254.183C752.562 253.667 752.706 253.067 752.706 252.383ZM769.477 247.271C770.257 247.271 770.953 247.433 771.565 247.757C772.189 248.081 772.675 248.561 773.023 249.197C773.383 249.833 773.563 250.601 773.563 251.501V257.351H771.529V251.807C771.529 250.919 771.307 250.241 770.863 249.773C770.419 249.293 769.813 249.053 769.045 249.053C768.277 249.053 767.665 249.293 767.209 249.773C766.765 250.241 766.543 250.919 766.543 251.807V257.351H764.509V251.807C764.509 250.919 764.287 250.241 763.843 249.773C763.399 249.293 762.793 249.053 762.025 249.053C761.257 249.053 760.645 249.293 760.189 249.773C759.745 250.241 759.523 250.919 759.523 251.807V257.351H757.471V247.433H759.523V248.567C759.859 248.159 760.285 247.841 760.801 247.613C761.317 247.385 761.869 247.271 762.457 247.271C763.249 247.271 763.957 247.439 764.581 247.775C765.205 248.111 765.685 248.597 766.021 249.233C766.321 248.633 766.789 248.159 767.425 247.811C768.061 247.451 768.745 247.271 769.477 247.271ZM785.264 252.149C785.264 252.521 785.24 252.857 785.192 253.157H777.614C777.674 253.949 777.968 254.585 778.496 255.065C779.024 255.545 779.672 255.785 780.44 255.785C781.544 255.785 782.324 255.323 782.78 254.399H784.994C784.694 255.311 784.148 256.061 783.356 256.649C782.576 257.225 781.604 257.513 780.44 257.513C779.492 257.513 778.64 257.303 777.884 256.883C777.14 256.451 776.552 255.851 776.12 255.083C775.7 254.303 775.49 253.403 775.49 252.383C775.49 251.363 775.694 250.469 776.102 249.701C776.522 248.921 777.104 248.321 777.848 247.901C778.604 247.481 779.468 247.271 780.44 247.271C781.376 247.271 782.21 247.475 782.942 247.883C783.674 248.291 784.244 248.867 784.652 249.611C785.06 250.343 785.264 251.189 785.264 252.149ZM783.122 251.501C783.11 250.745 782.84 250.139 782.312 249.683C781.784 249.227 781.13 248.999 780.35 248.999C779.642 248.999 779.036 249.227 778.532 249.683C778.028 250.127 777.728 250.733 777.632 251.501H783.122ZM796.045 244.841C797.377 244.841 798.541 245.099 799.537 245.615C800.545 246.119 801.319 246.851 801.859 247.811C802.411 248.759 802.687 249.869 802.687 251.141C802.687 252.413 802.411 253.517 801.859 254.453C801.319 255.389 800.545 256.109 799.537 256.613C798.541 257.105 797.377 257.351 796.045 257.351H791.959V244.841H796.045ZM796.045 255.677C797.509 255.677 798.631 255.281 799.411 254.489C800.191 253.697 800.581 252.581 800.581 251.141C800.581 249.689 800.191 248.555 799.411 247.739C798.631 246.923 797.509 246.515 796.045 246.515H794.011V255.677H796.045ZM813.811 252.149C813.811 252.521 813.787 252.857 813.739 253.157H806.161C806.221 253.949 806.515 254.585 807.043 255.065C807.571 255.545 808.219 255.785 808.987 255.785C810.091 255.785 810.871 255.323 811.327 254.399H813.541C813.241 255.311 812.695 256.061 811.903 256.649C811.123 257.225 810.151 257.513 808.987 257.513C808.039 257.513 807.187 257.303 806.431 256.883C805.687 256.451 805.099 255.851 804.667 255.083C804.247 254.303 804.037 253.403 804.037 252.383C804.037 251.363 804.241 250.469 804.649 249.701C805.069 248.921 805.651 248.321 806.395 247.901C807.151 247.481 808.015 247.271 808.987 247.271C809.923 247.271 810.757 247.475 811.489 247.883C812.221 248.291 812.791 248.867 813.199 249.611C813.607 250.343 813.811 251.189 813.811 252.149ZM811.669 251.501C811.657 250.745 811.387 250.139 810.859 249.683C810.331 249.227 809.677 248.999 808.897 248.999C808.189 248.999 807.583 249.227 807.079 249.683C806.575 250.127 806.275 250.733 806.179 251.501H811.669ZM819.664 255.515L822.472 247.433H824.65L820.87 257.351H818.422L814.66 247.433H816.856L819.664 255.515ZM835.292 252.149C835.292 252.521 835.268 252.857 835.22 253.157H827.642C827.702 253.949 827.996 254.585 828.524 255.065C829.052 255.545 829.7 255.785 830.468 255.785C831.572 255.785 832.352 255.323 832.808 254.399H835.022C834.722 255.311 834.176 256.061 833.384 256.649C832.604 257.225 831.632 257.513 830.468 257.513C829.52 257.513 828.668 257.303 827.912 256.883C827.168 256.451 826.58 255.851 826.148 255.083C825.728 254.303 825.518 253.403 825.518 252.383C825.518 251.363 825.722 250.469 826.13 249.701C826.55 248.921 827.132 248.321 827.876 247.901C828.632 247.481 829.496 247.271 830.468 247.271C831.404 247.271 832.238 247.475 832.97 247.883C833.702 248.291 834.272 248.867 834.68 249.611C835.088 250.343 835.292 251.189 835.292 252.149ZM833.15 251.501C833.138 250.745 832.868 250.139 832.34 249.683C831.812 249.227 831.158 248.999 830.378 248.999C829.67 248.999 829.064 249.227 828.56 249.683C828.056 250.127 827.756 250.733 827.66 251.501H833.15ZM839.363 244.031V257.351H837.311V244.031H839.363ZM846.359 257.513C845.423 257.513 844.577 257.303 843.821 256.883C843.065 256.451 842.471 255.851 842.039 255.083C841.607 254.303 841.391 253.403 841.391 252.383C841.391 251.375 841.613 250.481 842.057 249.701C842.501 248.921 843.107 248.321 843.875 247.901C844.643 247.481 845.501 247.271 846.449 247.271C847.397 247.271 848.255 247.481 849.023 247.901C849.791 248.321 850.397 248.921 850.841 249.701C851.285 250.481 851.507 251.375 851.507 252.383C851.507 253.391 851.279 254.285 850.823 255.065C850.367 255.845 849.743 256.451 848.951 256.883C848.171 257.303 847.307 257.513 846.359 257.513ZM846.359 255.731C846.887 255.731 847.379 255.605 847.835 255.353C848.303 255.101 848.681 254.723 848.969 254.219C849.257 253.715 849.401 253.103 849.401 252.383C849.401 251.663 849.263 251.057 848.987 250.565C848.711 250.061 848.345 249.683 847.889 249.431C847.433 249.179 846.941 249.053 846.413 249.053C845.885 249.053 845.393 249.179 844.937 249.431C844.493 249.683 844.139 250.061 843.875 250.565C843.611 251.057 843.479 251.663 843.479 252.383C843.479 253.451 843.749 254.279 844.289 254.867C844.841 255.443 845.531 255.731 846.359 255.731ZM855.588 248.891C855.936 248.435 856.41 248.051 857.01 247.739C857.61 247.427 858.288 247.271 859.044 247.271C859.908 247.271 860.694 247.487 861.402 247.919C862.122 248.339 862.686 248.933 863.094 249.701C863.502 250.469 863.706 251.351 863.706 252.347C863.706 253.343 863.502 254.237 863.094 255.029C862.686 255.809 862.122 256.421 861.402 256.865C860.694 257.297 859.908 257.513 859.044 257.513C858.288 257.513 857.616 257.363 857.028 257.063C856.44 256.751 855.96 256.367 855.588 255.911V262.067H853.536V247.433H855.588V248.891ZM861.618 252.347C861.618 251.663 861.474 251.075 861.186 250.583C860.91 250.079 860.538 249.701 860.07 249.449C859.614 249.185 859.122 249.053 858.594 249.053C858.078 249.053 857.586 249.185 857.118 249.449C856.662 249.713 856.29 250.097 856.002 250.601C855.726 251.105 855.588 251.699 855.588 252.383C855.588 253.067 855.726 253.667 856.002 254.183C856.29 254.687 856.662 255.071 857.118 255.335C857.586 255.599 858.078 255.731 858.594 255.731C859.122 255.731 859.614 255.599 860.07 255.335C860.538 255.059 860.91 254.663 861.186 254.147C861.474 253.631 861.618 253.031 861.618 252.347ZM877.741 247.271C878.521 247.271 879.217 247.433 879.829 247.757C880.453 248.081 880.939 248.561 881.287 249.197C881.647 249.833 881.827 250.601 881.827 251.501V257.351H879.793V251.807C879.793 250.919 879.571 250.241 879.127 249.773C878.683 249.293 878.077 249.053 877.309 249.053C876.541 249.053 875.929 249.293 875.473 249.773C875.029 250.241 874.807 250.919 874.807 251.807V257.351H872.773V251.807C872.773 250.919 872.551 250.241 872.107 249.773C871.663 249.293 871.057 249.053 870.289 249.053C869.521 249.053 868.909 249.293 868.453 249.773C868.009 250.241 867.787 250.919 867.787 251.807V257.351H865.735V247.433H867.787V248.567C868.123 248.159 868.549 247.841 869.065 247.613C869.581 247.385 870.133 247.271 870.721 247.271C871.513 247.271 872.221 247.439 872.845 247.775C873.469 248.111 873.949 248.597 874.285 249.233C874.585 248.633 875.053 248.159 875.689 247.811C876.325 247.451 877.009 247.271 877.741 247.271ZM893.528 252.149C893.528 252.521 893.504 252.857 893.456 253.157H885.878C885.938 253.949 886.232 254.585 886.76 255.065C887.288 255.545 887.936 255.785 888.704 255.785C889.808 255.785 890.588 255.323 891.044 254.399H893.258C892.958 255.311 892.412 256.061 891.62 256.649C890.84 257.225 889.868 257.513 888.704 257.513C887.756 257.513 886.904 257.303 886.148 256.883C885.404 256.451 884.816 255.851 884.384 255.083C883.964 254.303 883.754 253.403 883.754 252.383C883.754 251.363 883.958 250.469 884.366 249.701C884.786 248.921 885.368 248.321 886.112 247.901C886.868 247.481 887.732 247.271 888.704 247.271C889.64 247.271 890.474 247.475 891.206 247.883C891.938 248.291 892.508 248.867 892.916 249.611C893.324 250.343 893.528 251.189 893.528 252.149ZM891.386 251.501C891.374 250.745 891.104 250.139 890.576 249.683C890.048 249.227 889.394 248.999 888.614 248.999C887.906 248.999 887.3 249.227 886.796 249.683C886.292 250.127 885.992 250.733 885.896 251.501H891.386ZM900.551 247.271C901.331 247.271 902.027 247.433 902.639 247.757C903.263 248.081 903.749 248.561 904.097 249.197C904.445 249.833 904.619 250.601 904.619 251.501V257.351H902.585V251.807C902.585 250.919 902.363 250.241 901.919 249.773C901.475 249.293 900.869 249.053 900.101 249.053C899.333 249.053 898.721 249.293 898.265 249.773C897.821 250.241 897.599 250.919 897.599 251.807V257.351H895.547V247.433H897.599V248.567C897.935 248.159 898.361 247.841 898.877 247.613C899.405 247.385 899.963 247.271 900.551 247.271ZM909.631 249.107V254.597C909.631 254.969 909.715 255.239 909.883 255.407C910.063 255.563 910.363 255.641 910.783 255.641H912.043V257.351H910.423C909.499 257.351 908.791 257.135 908.299 256.703C907.807 256.271 907.561 255.569 907.561 254.597V249.107H906.391V247.433H907.561V244.967H909.631V247.433H912.043V249.107H909.631Z" fill="white"/>
<path d="M737.28 212.778L734.365 225.888V227.338H737.28C738.735 227.338 739.707 222.968 740.195 214.228L740.928 214.96H746.025V215.693L744.561 227.338H748.208V228.071C748.208 228.862 746.509 229.833 743.11 230.986V235.351H735.83V234.618L736.548 229.521H735.83L732.915 230.253H732.183C730.728 229.765 730 228.31 730 225.888V214.96C730 213.886 732.427 213.158 737.28 212.778ZM752.91 231.308L753.584 230.634H754.258L754.932 235.351H749.541V231.308H752.91ZM763.735 212.778L760.82 225.888V227.338H763.735C765.19 227.338 766.162 222.968 766.65 214.228L767.383 214.96H772.48V215.693L771.016 227.338H774.663V228.071C774.663 228.862 772.964 229.833 769.565 230.986V235.351H762.285V234.618L763.003 229.521H762.285L759.37 230.253H758.638C757.183 229.765 756.455 228.31 756.455 225.888V214.96C756.455 213.886 758.882 213.158 763.735 212.778ZM791.67 214.462L784.199 235.351H778.984L778.237 234.604H777.49L787.935 216.703H786.44L775.996 220.424V212.968H787.935C790.425 213.095 791.67 213.593 791.67 214.462ZM810.522 212.851L813.979 213.715C810.396 218.813 806.65 226.025 802.744 235.351L798.408 234.487V233.622C803.193 226.532 806.943 219.609 809.658 212.851H810.522ZM798.408 214.594H799.272L801.88 217.187V220.644L799.272 223.237H794.951L793.223 219.78C793.223 216.323 794.951 214.594 798.408 214.594ZM796.68 218.051V220.644H799.272V218.051H796.68ZM813.115 226.694C815.752 227.817 817.197 228.974 817.451 230.165V232.758L814.858 235.351H812.251L808.794 231.894C809.175 229.003 810.615 227.558 813.115 227.558V226.694ZM811.387 229.301V231.03L813.115 232.758H813.979L814.858 230.165L813.979 229.301H811.387Z" fill="white"/>
<path d="M740.389 339.884C740.389 340.52 740.239 341.12 739.939 341.684C739.639 342.248 739.159 342.71 738.499 343.07C737.839 343.418 736.993 343.592 735.961 343.592H733.693V348.668H731.641V336.158H735.961C736.921 336.158 737.731 336.326 738.391 336.662C739.063 336.986 739.561 337.43 739.885 337.994C740.221 338.558 740.389 339.188 740.389 339.884ZM735.961 341.918C736.741 341.918 737.323 341.744 737.707 341.396C738.091 341.036 738.283 340.532 738.283 339.884C738.283 338.516 737.509 337.832 735.961 337.832H733.693V341.918H735.961ZM743.21 345.878C744.362 344.882 745.268 344.066 745.928 343.43C746.6 342.782 747.158 342.11 747.602 341.414C748.046 340.718 748.268 340.022 748.268 339.326C748.268 338.606 748.094 338.042 747.746 337.634C747.41 337.226 746.876 337.022 746.144 337.022C745.436 337.022 744.884 337.25 744.488 337.706C744.104 338.15 743.9 338.75 743.876 339.506H741.896C741.932 338.138 742.34 337.094 743.12 336.374C743.912 335.642 744.914 335.276 746.126 335.276C747.434 335.276 748.454 335.636 749.186 336.356C749.93 337.076 750.302 338.036 750.302 339.236C750.302 340.1 750.08 340.934 749.636 341.738C749.204 342.53 748.682 343.244 748.07 343.88C747.47 344.504 746.702 345.23 745.766 346.058L744.956 346.778H750.662V348.488H741.914V346.994L743.21 345.878ZM754.786 337.814V341.486H759.106V343.16H754.786V346.994H759.646V348.668H752.734V336.14H759.646V337.814H754.786ZM773.348 348.668L770.468 343.664H768.902V348.668H766.85V336.158H771.17C772.13 336.158 772.94 336.326 773.6 336.662C774.272 336.998 774.77 337.448 775.094 338.012C775.43 338.576 775.598 339.206 775.598 339.902C775.598 340.718 775.358 341.462 774.878 342.134C774.41 342.794 773.684 343.244 772.7 343.484L775.796 348.668H773.348ZM768.902 342.026H771.17C771.938 342.026 772.514 341.834 772.898 341.45C773.294 341.066 773.492 340.55 773.492 339.902C773.492 339.254 773.3 338.75 772.916 338.39C772.532 338.018 771.95 337.832 771.17 337.832H768.902V342.026ZM787.313 343.466C787.313 343.838 787.289 344.174 787.241 344.474H779.663C779.723 345.266 780.017 345.902 780.545 346.382C781.073 346.862 781.721 347.102 782.489 347.102C783.593 347.102 784.373 346.64 784.829 345.716H787.043C786.743 346.628 786.197 347.378 785.405 347.966C784.625 348.542 783.653 348.83 782.489 348.83C781.541 348.83 780.689 348.62 779.933 348.2C779.189 347.768 778.601 347.168 778.169 346.4C777.749 345.62 777.539 344.72 777.539 343.7C777.539 342.68 777.743 341.786 778.151 341.018C778.571 340.238 779.153 339.638 779.897 339.218C780.653 338.798 781.517 338.588 782.489 338.588C783.425 338.588 784.259 338.792 784.991 339.2C785.723 339.608 786.293 340.184 786.701 340.928C787.109 341.66 787.313 342.506 787.313 343.466ZM785.171 342.818C785.159 342.062 784.889 341.456 784.361 341C783.833 340.544 783.179 340.316 782.399 340.316C781.691 340.316 781.085 340.544 780.581 341C780.077 341.444 779.777 342.05 779.681 342.818H785.171ZM802.652 338.75L799.574 348.668H797.414L795.416 341.342L793.418 348.668H791.258L788.162 338.75H790.25L792.32 346.724L794.426 338.75H796.568L798.584 346.688L800.636 338.75H802.652ZM803.502 343.664C803.502 342.668 803.706 341.786 804.114 341.018C804.534 340.25 805.098 339.656 805.806 339.236C806.526 338.804 807.318 338.588 808.182 338.588C808.962 338.588 809.64 338.744 810.216 339.056C810.804 339.356 811.272 339.734 811.62 340.19V338.75H813.69V348.668H811.62V347.192C811.272 347.66 810.798 348.05 810.198 348.362C809.598 348.674 808.914 348.83 808.146 348.83C807.294 348.83 806.514 348.614 805.806 348.182C805.098 347.738 804.534 347.126 804.114 346.346C803.706 345.554 803.502 344.66 803.502 343.664ZM811.62 343.7C811.62 343.016 811.476 342.422 811.188 341.918C810.912 341.414 810.546 341.03 810.09 340.766C809.634 340.502 809.142 340.37 808.614 340.37C808.086 340.37 807.594 340.502 807.138 340.766C806.682 341.018 806.31 341.396 806.022 341.9C805.746 342.392 805.608 342.98 805.608 343.664C805.608 344.348 805.746 344.948 806.022 345.464C806.31 345.98 806.682 346.376 807.138 346.652C807.606 346.916 808.098 347.048 808.614 347.048C809.142 347.048 809.634 346.916 810.09 346.652C810.546 346.388 810.912 346.004 811.188 345.5C811.476 344.984 811.62 344.384 811.62 343.7ZM818.437 340.19C818.737 339.686 819.133 339.296 819.625 339.02C820.129 338.732 820.723 338.588 821.407 338.588V340.712H820.885C820.081 340.712 819.469 340.916 819.049 341.324C818.641 341.732 818.437 342.44 818.437 343.448V348.668H816.385V338.75H818.437V340.19ZM822.609 343.664C822.609 342.668 822.813 341.786 823.221 341.018C823.641 340.25 824.205 339.656 824.913 339.236C825.633 338.804 826.431 338.588 827.307 338.588C827.955 338.588 828.591 338.732 829.215 339.02C829.851 339.296 830.355 339.668 830.727 340.136V335.348H832.797V348.668H830.727V347.174C830.391 347.654 829.923 348.05 829.323 348.362C828.735 348.674 828.057 348.83 827.289 348.83C826.425 348.83 825.633 348.614 824.913 348.182C824.205 347.738 823.641 347.126 823.221 346.346C822.813 345.554 822.609 344.66 822.609 343.664ZM830.727 343.7C830.727 343.016 830.583 342.422 830.295 341.918C830.019 341.414 829.653 341.03 829.197 340.766C828.741 340.502 828.249 340.37 827.721 340.37C827.193 340.37 826.701 340.502 826.245 340.766C825.789 341.018 825.417 341.396 825.129 341.9C824.853 342.392 824.715 342.98 824.715 343.664C824.715 344.348 824.853 344.948 825.129 345.464C825.417 345.98 825.789 346.376 826.245 346.652C826.713 346.916 827.205 347.048 827.721 347.048C828.249 347.048 828.741 346.916 829.197 346.652C829.653 346.388 830.019 346.004 830.295 345.5C830.583 344.984 830.727 344.384 830.727 343.7ZM839.092 348.83C838.312 348.83 837.61 348.692 836.986 348.416C836.374 348.128 835.888 347.744 835.528 347.264C835.168 346.772 834.976 346.226 834.952 345.626H837.076C837.112 346.046 837.31 346.4 837.67 346.688C838.042 346.964 838.504 347.102 839.056 347.102C839.632 347.102 840.076 346.994 840.388 346.778C840.712 346.55 840.874 346.262 840.874 345.914C840.874 345.542 840.694 345.266 840.334 345.086C839.986 344.906 839.428 344.708 838.66 344.492C837.916 344.288 837.31 344.09 836.842 343.898C836.374 343.706 835.966 343.412 835.618 343.016C835.282 342.62 835.114 342.098 835.114 341.45C835.114 340.922 835.27 340.442 835.582 340.01C835.894 339.566 836.338 339.218 836.914 338.966C837.502 338.714 838.174 338.588 838.93 338.588C840.058 338.588 840.964 338.876 841.648 339.452C842.344 340.016 842.716 340.79 842.764 341.774H840.712C840.676 341.33 840.496 340.976 840.172 340.712C839.848 340.448 839.41 340.316 838.858 340.316C838.318 340.316 837.904 340.418 837.616 340.622C837.328 340.826 837.184 341.096 837.184 341.432C837.184 341.696 837.28 341.918 837.472 342.098C837.664 342.278 837.898 342.422 838.174 342.53C838.45 342.626 838.858 342.752 839.398 342.908C840.118 343.1 840.706 343.298 841.162 343.502C841.63 343.694 842.032 343.982 842.368 344.366C842.704 344.75 842.878 345.26 842.89 345.896C842.89 346.46 842.734 346.964 842.422 347.408C842.11 347.852 841.666 348.2 841.09 348.452C840.526 348.704 839.86 348.83 839.092 348.83Z" fill="white"/>
<path d="M738.494 304.286C743.318 304.286 746.55 306.273 748.191 310.248L745.217 314.73C748.196 315.892 749.685 316.888 749.685 317.718C748.318 323.685 745.584 326.668 741.482 326.668H739.241C733.772 326.668 731.038 324.432 731.038 319.959C732.063 317.967 733.308 316.971 734.773 316.971V315.477L730.291 313.983V311.742C730.291 307.767 733.025 305.282 738.494 304.286ZM737.747 308.021V308.768L738.494 313.983H742.976L744.47 312.489V310.248L743.723 306.527H739.241L737.747 308.021ZM734.773 318.465V322.186L736.253 323.68H741.482L742.229 318.465V317.718L738.494 316.971H736.253L734.773 318.465ZM768.45 304.168L771.907 305.033C768.323 310.13 764.578 317.342 760.672 326.668L756.336 325.804V324.94C761.121 317.85 764.871 310.926 767.586 304.168H768.45ZM756.336 305.912H757.2L759.807 308.504V311.961L757.2 314.554H752.879L751.15 311.097C751.15 307.64 752.879 305.912 756.336 305.912ZM754.607 309.369V311.961H757.2V309.369H754.607ZM771.043 318.011C773.679 319.134 775.125 320.292 775.379 321.483V324.076L772.786 326.668H770.178L766.721 323.211C767.102 320.321 768.543 318.875 771.043 318.875V318.011ZM769.314 320.619V322.347L771.043 324.076H771.907L772.786 321.483L771.907 320.619H769.314Z" fill="white"/>
<path d="M730.666 437.069C730.666 435.845 730.948 434.747 731.512 433.775C732.088 432.803 732.862 432.047 733.834 431.507C734.818 430.955 735.892 430.679 737.056 430.679C738.388 430.679 739.57 431.009 740.602 431.669C741.646 432.317 742.402 433.241 742.87 434.441H740.404C740.08 433.781 739.63 433.289 739.054 432.965C738.478 432.641 737.812 432.479 737.056 432.479C736.228 432.479 735.49 432.665 734.842 433.037C734.194 433.409 733.684 433.943 733.312 434.639C732.952 435.335 732.772 436.145 732.772 437.069C732.772 437.993 732.952 438.803 733.312 439.499C733.684 440.195 734.194 440.735 734.842 441.119C735.49 441.491 736.228 441.677 737.056 441.677C737.812 441.677 738.478 441.515 739.054 441.191C739.63 440.867 740.08 440.375 740.404 439.715H742.87C742.402 440.915 741.646 441.839 740.602 442.487C739.57 443.135 738.388 443.459 737.056 443.459C735.88 443.459 734.806 443.189 733.834 442.649C732.862 442.097 732.088 441.335 731.512 440.363C730.948 439.391 730.666 438.293 730.666 437.069ZM747.324 432.497V436.169H751.644V437.843H747.324V441.677H752.184V443.351H745.272V430.823H752.184V432.497H747.324ZM760.453 437.105L764.341 443.351H762.037L759.211 438.815L756.565 443.351H754.279L758.167 437.105L754.261 430.841H756.565L759.409 435.413L762.073 430.841H764.359L760.453 437.105ZM773.322 441.695H777.552V443.351H771.27V430.841H773.322V441.695ZM780.312 432.119C779.94 432.119 779.628 431.993 779.376 431.741C779.124 431.489 778.998 431.177 778.998 430.805C778.998 430.433 779.124 430.121 779.376 429.869C779.628 429.617 779.94 429.491 780.312 429.491C780.672 429.491 780.978 429.617 781.23 429.869C781.482 430.121 781.608 430.433 781.608 430.805C781.608 431.177 781.482 431.489 781.23 431.741C780.978 431.993 780.672 432.119 780.312 432.119ZM781.32 433.433V443.351H779.268V433.433H781.32ZM783.33 438.347C783.33 437.351 783.534 436.469 783.942 435.701C784.362 434.933 784.926 434.339 785.634 433.919C786.354 433.487 787.152 433.271 788.028 433.271C788.796 433.271 789.474 433.427 790.062 433.739C790.662 434.051 791.124 434.429 791.448 434.873V433.433H793.518V448.067H791.448V441.911C791.124 442.355 790.656 442.733 790.044 443.045C789.432 443.357 788.736 443.513 787.956 443.513C787.104 443.513 786.324 443.297 785.616 442.865C784.92 442.421 784.362 441.809 783.942 441.029C783.534 440.237 783.33 439.343 783.33 438.347ZM791.448 438.383C791.448 437.699 791.304 437.105 791.016 436.601C790.74 436.097 790.374 435.713 789.918 435.449C789.462 435.185 788.97 435.053 788.442 435.053C787.914 435.053 787.422 435.185 786.966 435.449C786.51 435.701 786.138 436.079 785.85 436.583C785.574 437.075 785.436 437.663 785.436 438.347C785.436 439.031 785.574 439.631 785.85 440.147C786.138 440.663 786.51 441.059 786.966 441.335C787.434 441.599 787.926 441.731 788.442 441.731C788.97 441.731 789.462 441.599 789.918 441.335C790.374 441.071 790.74 440.687 791.016 440.183C791.304 439.667 791.448 439.067 791.448 438.383ZM805.195 433.433V443.351H803.143V442.181C802.819 442.589 802.393 442.913 801.865 443.153C801.349 443.381 800.797 443.495 800.209 443.495C799.429 443.495 798.727 443.333 798.103 443.009C797.491 442.685 797.005 442.205 796.645 441.569C796.297 440.933 796.123 440.165 796.123 439.265V433.433H798.157V438.959C798.157 439.847 798.379 440.531 798.823 441.011C799.267 441.479 799.873 441.713 800.641 441.713C801.409 441.713 802.015 441.479 802.459 441.011C802.915 440.531 803.143 439.847 803.143 438.959V433.433H805.195ZM808.947 432.119C808.575 432.119 808.263 431.993 808.011 431.741C807.759 431.489 807.633 431.177 807.633 430.805C807.633 430.433 807.759 430.121 808.011 429.869C808.263 429.617 808.575 429.491 808.947 429.491C809.307 429.491 809.613 429.617 809.865 429.869C810.117 430.121 810.243 430.433 810.243 430.805C810.243 431.177 810.117 431.489 809.865 431.741C809.613 431.993 809.307 432.119 808.947 432.119ZM809.955 433.433V443.351H807.903V433.433H809.955ZM811.965 438.347C811.965 437.351 812.169 436.469 812.577 435.701C812.997 434.933 813.561 434.339 814.269 433.919C814.989 433.487 815.787 433.271 816.663 433.271C817.311 433.271 817.947 433.415 818.571 433.703C819.207 433.979 819.711 434.351 820.083 434.819V430.031H822.153V443.351H820.083V441.857C819.747 442.337 819.279 442.733 818.679 443.045C818.091 443.357 817.413 443.513 816.645 443.513C815.781 443.513 814.989 443.297 814.269 442.865C813.561 442.421 812.997 441.809 812.577 441.029C812.169 440.237 811.965 439.343 811.965 438.347ZM820.083 438.383C820.083 437.699 819.939 437.105 819.651 436.601C819.375 436.097 819.009 435.713 818.553 435.449C818.097 435.185 817.605 435.053 817.077 435.053C816.549 435.053 816.057 435.185 815.601 435.449C815.145 435.701 814.773 436.079 814.485 436.583C814.209 437.075 814.071 437.663 814.071 438.347C814.071 439.031 814.209 439.631 814.485 440.147C814.773 440.663 815.145 441.059 815.601 441.335C816.069 441.599 816.561 441.731 817.077 441.731C817.605 441.731 818.097 441.599 818.553 441.335C819.009 441.071 819.375 440.687 819.651 440.183C819.939 439.667 820.083 439.067 820.083 438.383ZM825.892 432.119C825.52 432.119 825.208 431.993 824.956 431.741C824.704 431.489 824.578 431.177 824.578 430.805C824.578 430.433 824.704 430.121 824.956 429.869C825.208 429.617 825.52 429.491 825.892 429.491C826.252 429.491 826.558 429.617 826.81 429.869C827.062 430.121 827.188 430.433 827.188 430.805C827.188 431.177 827.062 431.489 826.81 431.741C826.558 431.993 826.252 432.119 825.892 432.119ZM826.9 433.433V443.351H824.848V433.433H826.9ZM831.988 435.107V440.597C831.988 440.969 832.072 441.239 832.24 441.407C832.42 441.563 832.72 441.641 833.14 441.641H834.4V443.351H832.78C831.856 443.351 831.148 443.135 830.656 442.703C830.164 442.271 829.918 441.569 829.918 440.597V435.107H828.748V433.433H829.918V430.967H831.988V433.433H834.4V435.107H831.988ZM845.219 433.433L839.135 448.013H837.011L839.027 443.189L835.121 433.433H837.407L840.197 440.993L843.095 433.433H845.219Z" fill="white"/>
<path d="M737.764 398.748V399.451L736.357 421.351H730L731.406 407.933V404.403L730 402.279V400.155L737.764 398.748ZM744.429 398.851H748.779C753.623 398.851 756.045 403.206 756.045 411.917C755.078 418.206 752.173 421.351 747.329 421.351H745.879C741.523 421.351 739.346 418.69 739.346 413.367V406.102C739.346 401.268 741.04 398.851 744.429 398.851ZM744.429 400.301L743.696 403.201C744.331 414.334 745.786 419.901 748.062 419.901H749.512L750.229 416.268V408.284C750.229 402.962 749.507 400.301 748.062 400.301H744.429ZM774.985 398.851L778.442 399.715C774.858 404.813 771.113 412.025 767.207 421.351L762.871 420.487V419.622C767.656 412.532 771.406 405.609 774.121 398.851H774.985ZM762.871 400.594H763.735L766.343 403.187V406.644L763.735 409.237H759.414L757.686 405.78C757.686 402.323 759.414 400.594 762.871 400.594ZM761.143 404.051V406.644H763.735V404.051H761.143ZM777.578 412.694C780.215 413.817 781.66 414.974 781.914 416.165V418.758L779.321 421.351H776.714L773.257 417.894C773.638 415.003 775.078 413.558 777.578 413.558V412.694ZM775.85 415.301V417.03L777.578 418.758H778.442L779.321 416.165L778.442 415.301H775.85Z" fill="white"/>
<path d="M5.472 132.477C4.632 132.477 3.876 132.333 3.204 132.045C2.532 131.745 2.004 131.325 1.62 130.785C1.236 130.245 1.044 129.615 1.044 128.895H3.24C3.288 129.435 3.498 129.879 3.87 130.227C4.254 130.575 4.788 130.749 5.472 130.749C6.18 130.749 6.732 130.581 7.128 130.245C7.524 129.897 7.722 129.453 7.722 128.913C7.722 128.493 7.596 128.151 7.344 127.887C7.104 127.623 6.798 127.419 6.426 127.275C6.066 127.131 5.562 126.975 4.914 126.807C4.098 126.591 3.432 126.375 2.916 126.159C2.412 125.931 1.98 125.583 1.62 125.115C1.26 124.647 1.08 124.023 1.08 123.243C1.08 122.523 1.26 121.893 1.62 121.353C1.98 120.813 2.484 120.399 3.132 120.111C3.78 119.823 4.53 119.679 5.382 119.679C6.594 119.679 7.584 119.985 8.352 120.597C9.132 121.197 9.564 122.025 9.648 123.081H7.38C7.344 122.625 7.128 122.235 6.732 121.911C6.336 121.587 5.814 121.425 5.166 121.425C4.578 121.425 4.098 121.575 3.726 121.875C3.354 122.175 3.168 122.607 3.168 123.171C3.168 123.555 3.282 123.873 3.51 124.125C3.75 124.365 4.05 124.557 4.41 124.701C4.77 124.845 5.262 125.001 5.886 125.169C6.714 125.397 7.386 125.625 7.902 125.853C8.43 126.081 8.874 126.435 9.234 126.915C9.606 127.383 9.792 128.013 9.792 128.805C9.792 129.441 9.618 130.041 9.27 130.605C8.934 131.169 8.436 131.625 7.776 131.973C7.128 132.309 6.36 132.477 5.472 132.477ZM14.6073 124.107V129.597C14.6073 129.969 14.6913 130.239 14.8593 130.407C15.0393 130.563 15.3393 130.641 15.7593 130.641H17.0193V132.351H15.3993C14.4753 132.351 13.7673 132.135 13.2753 131.703C12.7833 131.271 12.5373 130.569 12.5373 129.597V124.107H11.3673V122.433H12.5373V119.967H14.6073V122.433H17.0193V124.107H14.6073ZM18.2265 127.347C18.2265 126.351 18.4305 125.469 18.8385 124.701C19.2585 123.933 19.8225 123.339 20.5305 122.919C21.2505 122.487 22.0425 122.271 22.9065 122.271C23.6865 122.271 24.3645 122.427 24.9405 122.739C25.5285 123.039 25.9965 123.417 26.3445 123.873V122.433H28.4145V132.351H26.3445V130.875C25.9965 131.343 25.5225 131.733 24.9225 132.045C24.3225 132.357 23.6385 132.513 22.8705 132.513C22.0185 132.513 21.2385 132.297 20.5305 131.865C19.8225 131.421 19.2585 130.809 18.8385 130.029C18.4305 129.237 18.2265 128.343 18.2265 127.347ZM26.3445 127.383C26.3445 126.699 26.2005 126.105 25.9125 125.601C25.6365 125.097 25.2705 124.713 24.8145 124.449C24.3585 124.185 23.8665 124.053 23.3385 124.053C22.8105 124.053 22.3185 124.185 21.8625 124.449C21.4065 124.701 21.0345 125.079 20.7465 125.583C20.4705 126.075 20.3325 126.663 20.3325 127.347C20.3325 128.031 20.4705 128.631 20.7465 129.147C21.0345 129.663 21.4065 130.059 21.8625 130.335C22.3305 130.599 22.8225 130.731 23.3385 130.731C23.8665 130.731 24.3585 130.599 24.8145 130.335C25.2705 130.071 25.6365 129.687 25.9125 129.183C26.2005 128.667 26.3445 128.067 26.3445 127.383ZM35.0338 127.401L39.6058 132.351H36.8338L33.1618 128.085V132.351H31.1098V119.031H33.1618V126.771L36.7618 122.433H39.6058L35.0338 127.401ZM42.1206 121.119C41.7486 121.119 41.4366 120.993 41.1846 120.741C40.9326 120.489 40.8066 120.177 40.8066 119.805C40.8066 119.433 40.9326 119.121 41.1846 118.869C41.4366 118.617 41.7486 118.491 42.1206 118.491C42.4806 118.491 42.7866 118.617 43.0386 118.869C43.2906 119.121 43.4166 119.433 43.4166 119.805C43.4166 120.177 43.2906 120.489 43.0386 120.741C42.7866 120.993 42.4806 121.119 42.1206 121.119ZM43.1286 122.433V132.351H41.0766V122.433H43.1286ZM50.8267 122.271C51.6067 122.271 52.3027 122.433 52.9147 122.757C53.5387 123.081 54.0247 123.561 54.3727 124.197C54.7207 124.833 54.8947 125.601 54.8947 126.501V132.351H52.8607V126.807C52.8607 125.919 52.6387 125.241 52.1947 124.773C51.7507 124.293 51.1447 124.053 50.3767 124.053C49.6087 124.053 48.9967 124.293 48.5407 124.773C48.0967 125.241 47.8747 125.919 47.8747 126.807V132.351H45.8227V122.433H47.8747V123.567C48.2107 123.159 48.6367 122.841 49.1527 122.613C49.6807 122.385 50.2387 122.271 50.8267 122.271ZM61.5081 122.271C62.2761 122.271 62.9541 122.427 63.5421 122.739C64.1421 123.039 64.6101 123.417 64.9461 123.873V122.433H67.0161V132.513C67.0161 133.425 66.8241 134.235 66.4401 134.943C66.0561 135.663 65.4981 136.227 64.7661 136.635C64.0461 137.043 63.1821 137.247 62.1741 137.247C60.8301 137.247 59.7141 136.929 58.8261 136.293C57.9381 135.669 57.4341 134.817 57.3141 133.737H59.3481C59.5041 134.253 59.8341 134.667 60.3381 134.979C60.8541 135.303 61.4661 135.465 62.1741 135.465C63.0021 135.465 63.6681 135.213 64.1721 134.709C64.6881 134.205 64.9461 133.473 64.9461 132.513V130.857C64.5981 131.325 64.1241 131.721 63.5241 132.045C62.9361 132.357 62.2641 132.513 61.5081 132.513C60.6441 132.513 59.8521 132.297 59.1321 131.865C58.4241 131.421 57.8601 130.809 57.4401 130.029C57.0321 129.237 56.8281 128.343 56.8281 127.347C56.8281 126.351 57.0321 125.469 57.4401 124.701C57.8601 123.933 58.4241 123.339 59.1321 122.919C59.8521 122.487 60.6441 122.271 61.5081 122.271ZM64.9461 127.383C64.9461 126.699 64.8021 126.105 64.5141 125.601C64.2381 125.097 63.8721 124.713 63.4161 124.449C62.9601 124.185 62.4681 124.053 61.9401 124.053C61.4121 124.053 60.9201 124.185 60.4641 124.449C60.0081 124.701 59.6361 125.079 59.3481 125.583C59.0721 126.075 58.9341 126.663 58.9341 127.347C58.9341 128.031 59.0721 128.631 59.3481 129.147C59.6361 129.663 60.0081 130.059 60.4641 130.335C60.9321 130.599 61.4241 130.731 61.9401 130.731C62.4681 130.731 62.9601 130.599 63.4161 130.335C63.8721 130.071 64.2381 129.687 64.5141 129.183C64.8021 128.667 64.9461 128.067 64.9461 127.383ZM80.8851 132.351L78.0051 127.347H76.4391V132.351H74.3871V119.841H78.7071C79.6671 119.841 80.4771 120.009 81.1371 120.345C81.8091 120.681 82.3071 121.131 82.6311 121.695C82.9671 122.259 83.1351 122.889 83.1351 123.585C83.1351 124.401 82.8951 125.145 82.4151 125.817C81.9471 126.477 81.2211 126.927 80.2371 127.167L83.3331 132.351H80.8851ZM76.4391 125.709H78.7071C79.4751 125.709 80.0511 125.517 80.4351 125.133C80.8311 124.749 81.0291 124.233 81.0291 123.585C81.0291 122.937 80.8371 122.433 80.4531 122.073C80.0691 121.701 79.4871 121.515 78.7071 121.515H76.4391V125.709ZM94.8502 127.149C94.8502 127.521 94.8262 127.857 94.7782 128.157H87.2002C87.2602 128.949 87.5542 129.585 88.0822 130.065C88.6102 130.545 89.2582 130.785 90.0262 130.785C91.1302 130.785 91.9102 130.323 92.3662 129.399H94.5802C94.2802 130.311 93.7342 131.061 92.9422 131.649C92.1622 132.225 91.1902 132.513 90.0262 132.513C89.0782 132.513 88.2262 132.303 87.4702 131.883C86.7262 131.451 86.1382 130.851 85.7062 130.083C85.2862 129.303 85.0762 128.403 85.0762 127.383C85.0762 126.363 85.2802 125.469 85.6882 124.701C86.1082 123.921 86.6902 123.321 87.4342 122.901C88.1902 122.481 89.0542 122.271 90.0262 122.271C90.9622 122.271 91.7962 122.475 92.5282 122.883C93.2602 123.291 93.8302 123.867 94.2382 124.611C94.6462 125.343 94.8502 126.189 94.8502 127.149ZM92.7082 126.501C92.6962 125.745 92.4262 125.139 91.8982 124.683C91.3702 124.227 90.7162 123.999 89.9362 123.999C89.2282 123.999 88.6222 124.227 88.1182 124.683C87.6142 125.127 87.3142 125.733 87.2182 126.501H92.7082ZM110.19 122.433L107.112 132.351H104.952L102.954 125.025L100.956 132.351H98.7955L95.6995 122.433H97.7875L99.8575 130.407L101.964 122.433H104.106L106.122 130.371L108.174 122.433H110.19ZM111.039 127.347C111.039 126.351 111.243 125.469 111.651 124.701C112.071 123.933 112.635 123.339 113.343 122.919C114.063 122.487 114.855 122.271 115.719 122.271C116.499 122.271 117.177 122.427 117.753 122.739C118.341 123.039 118.809 123.417 119.157 123.873V122.433H121.227V132.351H119.157V130.875C118.809 131.343 118.335 131.733 117.735 132.045C117.135 132.357 116.451 132.513 115.683 132.513C114.831 132.513 114.051 132.297 113.343 131.865C112.635 131.421 112.071 130.809 111.651 130.029C111.243 129.237 111.039 128.343 111.039 127.347ZM119.157 127.383C119.157 126.699 119.013 126.105 118.725 125.601C118.449 125.097 118.083 124.713 117.627 124.449C117.171 124.185 116.679 124.053 116.151 124.053C115.623 124.053 115.131 124.185 114.675 124.449C114.219 124.701 113.847 125.079 113.559 125.583C113.283 126.075 113.145 126.663 113.145 127.347C113.145 128.031 113.283 128.631 113.559 129.147C113.847 129.663 114.219 130.059 114.675 130.335C115.143 130.599 115.635 130.731 116.151 130.731C116.679 130.731 117.171 130.599 117.627 130.335C118.083 130.071 118.449 129.687 118.725 129.183C119.013 128.667 119.157 128.067 119.157 127.383ZM125.974 123.873C126.274 123.369 126.67 122.979 127.162 122.703C127.666 122.415 128.26 122.271 128.944 122.271V124.395H128.422C127.618 124.395 127.006 124.599 126.586 125.007C126.178 125.415 125.974 126.123 125.974 127.131V132.351H123.922V122.433H125.974V123.873ZM130.146 127.347C130.146 126.351 130.35 125.469 130.758 124.701C131.178 123.933 131.742 123.339 132.45 122.919C133.17 122.487 133.968 122.271 134.844 122.271C135.492 122.271 136.128 122.415 136.752 122.703C137.388 122.979 137.892 123.351 138.264 123.819V119.031H140.334V132.351H138.264V130.857C137.928 131.337 137.46 131.733 136.86 132.045C136.272 132.357 135.594 132.513 134.826 132.513C133.962 132.513 133.17 132.297 132.45 131.865C131.742 131.421 131.178 130.809 130.758 130.029C130.35 129.237 130.146 128.343 130.146 127.347ZM138.264 127.383C138.264 126.699 138.12 126.105 137.832 125.601C137.556 125.097 137.19 124.713 136.734 124.449C136.278 124.185 135.786 124.053 135.258 124.053C134.73 124.053 134.238 124.185 133.782 124.449C133.326 124.701 132.954 125.079 132.666 125.583C132.39 126.075 132.252 126.663 132.252 127.347C132.252 128.031 132.39 128.631 132.666 129.147C132.954 129.663 133.326 130.059 133.782 130.335C134.25 130.599 134.742 130.731 135.258 130.731C135.786 130.731 136.278 130.599 136.734 130.335C137.19 130.071 137.556 129.687 137.832 129.183C138.12 128.667 138.264 128.067 138.264 127.383ZM146.63 132.513C145.85 132.513 145.148 132.375 144.524 132.099C143.912 131.811 143.426 131.427 143.066 130.947C142.706 130.455 142.514 129.909 142.49 129.309H144.614C144.65 129.729 144.848 130.083 145.208 130.371C145.58 130.647 146.042 130.785 146.594 130.785C147.17 130.785 147.614 130.677 147.926 130.461C148.25 130.233 148.412 129.945 148.412 129.597C148.412 129.225 148.232 128.949 147.872 128.769C147.524 128.589 146.966 128.391 146.198 128.175C145.454 127.971 144.848 127.773 144.38 127.581C143.912 127.389 143.504 127.095 143.156 126.699C142.82 126.303 142.652 125.781 142.652 125.133C142.652 124.605 142.808 124.125 143.12 123.693C143.432 123.249 143.876 122.901 144.452 122.649C145.04 122.397 145.712 122.271 146.468 122.271C147.596 122.271 148.502 122.559 149.186 123.135C149.882 123.699 150.254 124.473 150.302 125.457H148.25C148.214 125.013 148.034 124.659 147.71 124.395C147.386 124.131 146.948 123.999 146.396 123.999C145.856 123.999 145.442 124.101 145.154 124.305C144.866 124.509 144.722 124.779 144.722 125.115C144.722 125.379 144.818 125.601 145.01 125.781C145.202 125.961 145.436 126.105 145.712 126.213C145.988 126.309 146.396 126.435 146.936 126.591C147.656 126.783 148.244 126.981 148.7 127.185C149.168 127.377 149.57 127.665 149.906 128.049C150.242 128.433 150.416 128.943 150.428 129.579C150.428 130.143 150.272 130.647 149.96 131.091C149.648 131.535 149.204 131.883 148.628 132.135C148.064 132.387 147.398 132.513 146.63 132.513Z" fill="white"/>
<path d="M7.28027 86.7776L4.36523 99.8879V101.338H7.28027C8.73535 101.338 9.70703 96.968 10.1953 88.2278L10.9277 88.9602H16.0254V89.6926L14.5605 101.338H18.208V102.071C18.208 102.862 16.5088 103.833 13.1104 104.986V109.351H5.83008V108.618L6.54785 103.521H5.83008L2.91504 104.253H2.18262C0.727539 103.765 0 102.31 0 99.8879V88.9602C0 87.886 2.42676 87.1584 7.28027 86.7776ZM22.5439 86.8508H33.7939L35.2881 88.345V92.8567C30.7861 93.2473 28.5352 93.9944 28.5352 95.0979C33.5352 97.0706 36.0352 99.8196 36.0352 103.345C36.0352 107.349 32.7881 109.351 26.2939 109.351C22.29 108.716 20.2881 106.714 20.2881 103.345H21.0352L26.2939 104.107C28.7939 103.462 30.0439 102.71 30.0439 101.851C30.0439 98.3547 27.793 96.6067 23.291 96.6067C25.4492 94.136 28.4473 92.3831 32.2852 91.3479L30.791 89.8538L19.541 92.8567V92.095C20.7324 88.5989 21.7334 86.8508 22.5439 86.8508ZM40.8105 105.308L41.4844 104.634H42.1582L42.832 109.351H37.4414V105.308H40.8105ZM49.4385 86.8508H53.7891C58.6328 86.8508 61.0547 91.2063 61.0547 99.9172C60.0879 106.206 57.1826 109.351 52.3389 109.351H50.8887C46.5332 109.351 44.3555 106.69 44.3555 101.367V94.1018C44.3555 89.2678 46.0498 86.8508 49.4385 86.8508ZM49.4385 88.301L48.7061 91.2014C49.3408 102.334 50.7959 107.901 53.0713 107.901H54.5215L55.2393 104.268V96.2844C55.2393 90.9622 54.5166 88.301 53.0713 88.301H49.4385ZM72.085 86.968C77.3779 86.968 80.0244 89.8538 80.0244 95.6252V99.9612C80.0244 106.221 77.1338 109.351 71.3525 109.351L69.917 107.183V106.465L74.2529 102.129V101.411L69.917 102.847H67.749L62.6953 101.411V99.2434C62.6953 91.0598 65.1025 86.968 69.917 86.968H72.085ZM68.4668 92.7395V100.694H69.1992C70.791 100.362 73.1982 98.1936 76.4209 94.1897C75.1611 91.094 73.9551 89.4094 72.8027 89.136H72.085L68.4668 92.7395ZM98.7744 86.8508L102.231 87.7151C98.6475 92.8127 94.9023 100.025 90.9961 109.351L86.6602 108.487V107.622C91.4453 100.532 95.1953 93.6086 97.9102 86.8508H98.7744ZM86.6602 88.594H87.5244L90.1318 91.1868V94.6438L87.5244 97.2366H83.2031L81.4746 93.7795C81.4746 90.3225 83.2031 88.594 86.6602 88.594ZM84.9316 92.051V94.6438H87.5244V92.051H84.9316ZM101.367 100.694C104.004 101.817 105.449 102.974 105.703 104.165V106.758L103.11 109.351H100.503L97.0459 105.894C97.4268 103.003 98.8672 101.558 101.367 101.558V100.694ZM99.6387 103.301V105.03L101.367 106.758H102.231L103.11 104.165L102.231 103.301H99.6387Z" fill="white"/>
<path d="M133.096 100.351H214.982C225.352 100.351 235.465 103.575 243.922 109.577L271.782 129.351" stroke="white" stroke-width="6" stroke-dasharray="6 6"/>
<path d="M716.854 147.668H643.111C632.122 147.668 621.44 151.288 612.715 157.968L588.291 176.668" stroke="white" stroke-width="6" stroke-dasharray="6 6"/>
<path d="M716.854 329.668H643.111C632.122 329.668 621.44 326.049 612.715 319.369L588.291 300.668" stroke="white" stroke-width="6" stroke-dasharray="6 6"/>
<path d="M716.563 424.351H642.82C631.832 424.351 621.149 420.731 612.424 414.051L588 395.351" stroke="white" stroke-width="6" stroke-dasharray="6 6"/>
<path d="M717.291 240.668L626.291 241.668" stroke="white" stroke-width="6" stroke-dasharray="6 6"/>
<path d="M124.997 402.351H199.898C208.836 402.351 217.611 399.955 225.309 395.412L257.61 376.351" stroke="white" stroke-width="6" stroke-dasharray="6 6"/>
<g filter="url(#filter0_d_1_117)">
<ellipse cx="415.312" cy="265.888" rx="222.202" ry="219.5" fill="white"/>
</g>
<path d="M245.909 348.208C242.413 349.859 240.906 354.038 242.682 357.472C253.295 377.993 267.499 396.471 284.636 412.022C303.503 429.141 325.558 442.377 349.54 450.973C373.522 459.57 398.963 463.358 424.409 462.123C447.523 461 470.231 455.752 491.464 446.646C495.017 445.122 496.508 440.938 494.857 437.442L465.991 376.321C464.34 372.826 460.175 371.352 456.583 372.782C445.07 377.367 432.862 380.022 420.452 380.624C405.708 381.34 390.967 379.145 377.072 374.164C363.176 369.184 350.398 361.515 339.466 351.595C330.264 343.246 322.523 333.44 316.544 322.586C314.678 319.199 310.525 317.691 307.03 319.342L245.909 348.208Z" fill="#9DDB63"/>
<path d="M245.909 348.208C242.413 349.859 240.906 354.038 242.682 357.472C253.295 377.993 267.499 396.471 284.636 412.022C303.503 429.141 325.558 442.377 349.54 450.973C373.522 459.57 398.963 463.358 424.409 462.123C447.523 461 470.231 455.752 491.464 446.646C495.017 445.122 496.508 440.938 494.857 437.442L465.991 376.321C464.34 372.826 460.175 371.352 456.583 372.782C445.07 377.367 432.862 380.022 420.452 380.624C405.708 381.34 390.967 379.145 377.072 374.164C363.176 369.184 350.398 361.515 339.466 351.595C330.264 343.246 322.523 333.44 316.544 322.586C314.678 319.199 310.525 317.691 307.03 319.342L245.909 348.208Z" fill="#9DDB63"/>
<path d="M506.672 431.34C508.567 434.709 512.842 435.915 516.141 433.9C543.24 417.344 565.863 394.387 582.018 367.047C583.985 363.719 582.716 359.462 579.319 357.616L519.923 325.35C516.526 323.504 512.294 324.776 510.241 328.052C501.525 341.956 489.869 353.785 476.095 362.704C472.849 364.805 471.64 369.055 473.535 372.425L506.672 431.34Z" fill="#9DDB63"/>
<path d="M506.672 431.34C508.567 434.709 512.842 435.915 516.141 433.9C543.24 417.344 565.863 394.387 582.018 367.047C583.985 363.719 582.716 359.462 579.319 357.616L519.923 325.35C516.526 323.504 512.294 324.776 510.241 328.052C501.525 341.956 489.869 353.785 476.095 362.704C472.849 364.805 471.64 369.055 473.535 372.425L506.672 431.34Z" fill="#39CEF3"/>
<path d="M506.672 431.34C508.567 434.709 512.842 435.915 516.141 433.9C543.24 417.344 565.863 394.387 582.018 367.047C583.985 363.719 582.716 359.462 579.319 357.616L519.923 325.35C516.526 323.504 512.294 324.776 510.241 328.052C501.525 341.956 489.869 353.785 476.095 362.704C472.849 364.805 471.64 369.055 473.535 372.425L506.672 431.34Z" fill="#39CEF3"/>
<path d="M584.274 347.82C587.774 349.462 591.955 347.962 593.47 344.405C602.783 322.552 608.003 299.172 608.871 275.433C609.012 271.57 605.866 268.433 602 268.431L534.406 268.402C530.54 268.401 527.427 271.536 527.185 275.395C526.446 287.159 523.862 298.734 519.526 309.694C518.104 313.289 519.588 317.451 523.087 319.094L584.274 347.82Z" fill="#9DDB63"/>
<path d="M584.274 347.82C587.774 349.462 591.955 347.962 593.47 344.405C602.783 322.552 608.003 299.172 608.871 275.433C609.012 271.57 605.866 268.433 602 268.431L534.406 268.402C530.54 268.401 527.427 271.536 527.185 275.395C526.446 287.159 523.862 298.734 519.526 309.694C518.104 313.289 519.588 317.451 523.087 319.094L584.274 347.82Z" fill="#39CEF3"/>
<path d="M584.274 347.82C587.774 349.462 591.955 347.962 593.47 344.405C602.783 322.552 608.003 299.172 608.871 275.433C609.012 271.57 605.866 268.433 602 268.431L534.406 268.402C530.54 268.401 527.427 271.536 527.185 275.395C526.446 287.159 523.862 298.734 519.526 309.694C518.104 313.289 519.588 317.451 523.087 319.094L584.274 347.82Z" fill="#E561C4"/>
<path d="M601.685 257.496C605.544 257.272 608.504 253.96 608.141 250.111C607.317 241.393 605.905 232.742 603.913 224.215C603.033 220.45 599.173 218.251 595.443 219.266L530.219 237.009C526.488 238.023 524.31 241.867 525.09 245.653C525.718 248.699 526.219 251.769 526.593 254.855C527.057 258.693 530.345 261.644 534.204 261.42L601.685 257.496Z" fill="#9DDB63"/>
<path d="M601.685 257.496C605.544 257.272 608.504 253.96 608.141 250.111C607.317 241.393 605.905 232.742 603.913 224.215C603.033 220.45 599.173 218.251 595.443 219.266L530.219 237.009C526.488 238.023 524.31 241.867 525.09 245.653C525.718 248.699 526.219 251.769 526.593 254.855C527.057 258.693 530.345 261.644 534.204 261.42L601.685 257.496Z" fill="#39CEF3"/>
<path d="M601.685 257.496C605.544 257.272 608.504 253.96 608.141 250.111C607.317 241.393 605.905 232.742 603.913 224.215C603.033 220.45 599.173 218.251 595.443 219.266L530.219 237.009C526.488 238.023 524.31 241.867 525.09 245.653C525.718 248.699 526.219 251.769 526.593 254.855C527.057 258.693 530.345 261.644 534.204 261.42L601.685 257.496Z" fill="#E5D861"/>
<path d="M593.102 211.353C596.784 210.175 598.826 206.23 597.515 202.593C588.64 177.958 574.868 155.374 557.032 136.204C554.399 133.373 549.956 133.382 547.223 136.116L499.429 183.914C496.695 186.648 496.714 191.066 499.272 193.965C508.001 203.854 514.923 215.204 519.717 227.493C521.122 231.095 525.042 233.134 528.724 231.956L593.102 211.353Z" fill="#9DDB63"/>
<path d="M593.102 211.353C596.784 210.175 598.826 206.23 597.515 202.593C588.64 177.958 574.868 155.374 557.032 136.204C554.399 133.373 549.956 133.382 547.223 136.116L499.429 183.914C496.695 186.648 496.714 191.066 499.272 193.965C508.001 203.854 514.923 215.204 519.717 227.493C521.122 231.095 525.042 233.134 528.724 231.956L593.102 211.353Z" fill="#39CEF3"/>
<path d="M593.102 211.353C596.784 210.175 598.826 206.23 597.515 202.593C588.64 177.958 574.868 155.374 557.032 136.204C554.399 133.373 549.956 133.382 547.223 136.116L499.429 183.914C496.695 186.648 496.714 191.066 499.272 193.965C508.001 203.854 514.923 215.204 519.717 227.493C521.122 231.095 525.042 233.134 528.724 231.956L593.102 211.353Z" fill="#8361E5"/>
<path d="M535.447 125.307C537.937 122.35 537.566 117.923 534.52 115.541C502.843 90.7639 464.193 76.4066 423.904 74.5554C381.281 72.5969 339.201 84.7452 304.179 109.119C269.158 133.493 243.148 168.733 230.179 209.383C217.92 247.806 217.958 289.037 230.188 327.348C231.364 331.031 235.386 332.917 239.024 331.609L302.634 308.743C306.272 307.436 308.138 303.431 307.059 299.719C300.842 278.325 301.109 255.509 307.913 234.184C315.427 210.631 330.497 190.213 350.789 176.09C371.081 161.968 395.463 154.929 420.159 156.064C442.519 157.091 464.008 164.767 481.909 178.028C485.016 180.329 489.419 179.97 491.909 177.013L535.447 125.307Z" fill="#9DDB63"/>
<path d="M535.447 125.307C537.937 122.35 537.566 117.923 534.52 115.541C502.843 90.7639 464.193 76.4066 423.904 74.5554C381.281 72.5969 339.201 84.7452 304.179 109.119C269.158 133.493 243.148 168.733 230.179 209.383C217.92 247.806 217.958 289.037 230.188 327.348C231.364 331.031 235.386 332.917 239.024 331.609L302.634 308.743C306.272 307.436 308.138 303.431 307.059 299.719C300.842 278.325 301.109 255.509 307.913 234.184C315.427 210.631 330.497 190.213 350.789 176.09C371.081 161.968 395.463 154.929 420.159 156.064C442.519 157.091 464.008 164.767 481.909 178.028C485.016 180.329 489.419 179.97 491.909 177.013L535.447 125.307Z" fill="#FF723E"/>
<path d="M363.935 217.187H365.107V221.288H359.248V230.663L359.834 234.765H358.076L355.146 235.351L355.732 222.46H352.217V216.601L363.935 217.187ZM372.895 222.179V222.777L373.494 222.179L376.484 222.777H378.279L378.877 225.768V228.759C377.795 233.153 376.399 235.351 374.69 235.351H371.089C367.899 235.351 366.304 231.957 366.304 225.17C366.304 223.575 368.501 222.578 372.895 222.179ZM370.491 223.974L369.294 225.768V226.366C369.294 229.312 369.893 230.911 371.089 231.164H373.494C374.462 231.164 375.06 229.166 375.288 225.17L370.491 223.974ZM381.306 219.994H385.139C385.139 221.703 385.566 222.558 386.421 222.558L388.984 223.193V225.756H385.139V235.351H381.941V227.038H380.024V222.558H381.941V221.276L381.306 220.629V219.994ZM397.493 222.546C400.748 222.546 402.375 225.797 402.375 232.299V234.13L401.765 234.74V235.351L392.622 234.74H390.791L390.181 229.247H390.791L393.232 228.649H397.493L398.713 227.428V226.818L397.493 225.597H396.284C395.47 225.597 395.063 226.208 395.063 227.428H394.453L390.181 226.818V223.156L397.493 222.546ZM395.674 230.468V232.299L396.882 233.52L399.934 232.909V229.858L396.882 229.247L395.674 230.468ZM407.283 217.882V235.351H404.158L403.535 227.868V218.505L407.283 217.882ZM427.07 217.187H428.242V221.288H422.383V230.663L422.969 234.765H421.211L418.281 235.351L418.867 222.46H415.352V216.601L427.07 217.187ZM436.03 222.179V222.777L436.628 222.179L439.619 222.777H441.414L442.012 225.768V228.759C440.929 233.153 439.534 235.351 437.825 235.351H434.224C431.033 235.351 429.438 231.957 429.438 225.17C429.438 223.575 431.636 222.578 436.03 222.179ZM433.625 223.974L432.429 225.768V226.366C432.429 229.312 433.027 230.911 434.224 231.164H436.628C437.597 231.164 438.195 229.166 438.423 225.17L433.625 223.974ZM443.159 217.516H448.079V218.127L447.468 227.355L448.079 227.965H448.689C449.332 224.686 450.357 223.046 451.765 223.046C453.637 223.844 454.662 224.665 454.841 225.512L451.155 228.588V229.198C453.206 231.558 454.231 233.609 454.231 235.351H451.765C450.78 235.351 450.166 233.507 449.922 229.821L449.311 229.198H446.235V229.821L447.468 235.351H443.769V226.745L443.159 219.359H443.769L443.159 218.749V217.516ZM460.505 222.619H462.251C466.108 222.619 468.037 224.739 468.037 228.979C466.304 229.752 463.793 230.138 460.505 230.138H458.198V230.724C458.581 231.88 459.736 232.458 461.665 232.458H463.411V231.298H467.463V231.872C467.073 234.191 466.491 235.351 465.718 235.351H457.612C456.701 235.351 456.123 233.809 455.879 230.724C455.879 225.321 457.421 222.619 460.505 222.619ZM457.612 226.086V228.979L459.358 229.565C462.06 229.174 463.411 228.592 463.411 227.819V227.245L462.251 226.086H457.612ZM470.967 222.643L474.141 222.008C474.141 223.278 474.779 223.913 476.057 223.913C479.866 224.434 481.77 225.28 481.77 226.452V230.273C481.77 233.389 481.135 235.082 479.866 235.351H477.327L476.057 234.081V227.721H474.141V235.351H469.062L471.602 224.547L470.967 223.913V222.643ZM380.61 241.601H382.307L390.84 242.174V243.31L390.266 247.277L383.442 245.58H382.307L381.172 246.715V247.851L390.266 252.965L391.401 256.371C391.401 259.024 386.856 260.351 377.766 260.351V259.215L378.34 255.236L384.016 255.81C385.977 255.81 387.113 255.24 387.422 254.101C380.985 251.537 377.766 248.697 377.766 245.58C377.766 243.765 378.714 242.439 380.61 241.601ZM396.138 246.813H397.493L396.821 256.286H397.493L401.558 256.969L403.584 256.286L400.874 247.484H401.558L404.268 246.813H404.939L406.294 248.168V256.969C406.294 258.646 403.588 259.773 398.176 260.351C395.816 260.351 394.01 259.224 392.756 256.969V247.484L396.138 246.813ZM408.027 247.912H416.084C418.566 248.172 419.807 248.791 419.807 249.767V255.968L418.562 257.214H413.606L410.505 256.591V264.648H407.405L408.027 264.025V247.912ZM413.606 249.767V254.113L414.839 255.346H417.939V249.767H413.606ZM421.65 247.912H429.707C432.189 248.172 433.43 248.791 433.43 249.767V255.968L432.185 257.214H427.229L424.128 256.591V264.648H421.028L421.65 264.025V247.912ZM427.229 249.767V254.113L428.462 255.346H431.562V249.767H427.229ZM438.398 242.882V260.351H435.273L434.651 252.868V243.505L438.398 242.882ZM443.208 246.789L445.674 251.72H446.907C447.729 248.433 448.551 246.789 449.372 246.789L451.838 248.644C446.907 255.423 444.441 259.325 444.441 260.351H440.12L442.585 256.652L439.509 247.411H440.12L443.208 246.178V246.789ZM453.315 245.299V245.946L453.975 245.299H455.281L455.94 249.218H452.009V246.606L453.315 245.299ZM452.668 255.773C454.849 256.042 455.94 257.348 455.94 259.692V260.351H453.975L452.668 259.045V255.773Z" fill="#2A4474"/>
<path d="M338.19 283.776V284.291L337.159 300.351H332.497L333.528 290.511V287.922L332.497 286.364V284.807L338.19 283.776ZM339.898 283.937L349.201 284.484V286.676L348.653 289.404L342.638 287.224H341.542V289.952C341.542 290.683 343.365 291.048 347.01 291.048C350.655 292.237 352.477 293.15 352.477 293.787V295.431C352.477 298.711 348.65 300.351 340.994 300.351L339.351 297.064L343.185 297.611H344.27L347.01 297.064V295.431C346.644 294.335 345.549 293.787 343.723 293.787H339.898V283.937ZM357.236 283.851H360.427C363.979 283.851 365.755 287.045 365.755 293.433C365.046 298.045 362.915 300.351 359.363 300.351H358.3C355.106 300.351 353.509 298.399 353.509 294.496V289.168C353.509 285.623 354.751 283.851 357.236 283.851ZM357.236 284.914L356.699 287.041C357.165 295.205 358.232 299.287 359.9 299.287H360.964L361.49 296.623V290.769C361.49 286.866 360.96 284.914 359.9 284.914H357.236ZM370.191 297.665L370.728 299.824V301.436L369.654 302.521H369.117C369.117 301.081 368.397 300.361 366.958 300.361V297.665L370.191 297.128V297.665ZM375.519 283.851H378.71C382.262 283.851 384.038 287.045 384.038 293.433C383.329 298.045 381.199 300.351 377.646 300.351H376.583C373.389 300.351 371.792 298.399 371.792 294.496V289.168C371.792 285.623 373.034 283.851 375.519 283.851ZM375.519 284.914L374.982 287.041C375.448 295.205 376.515 299.287 378.184 299.287H379.247L379.773 296.623V290.769C379.773 286.866 379.243 284.914 378.184 284.914H375.519ZM388.969 283.851H392.159C395.711 283.851 397.487 287.045 397.487 293.433C396.778 298.045 394.648 300.351 391.096 300.351H390.032C386.838 300.351 385.241 298.399 385.241 294.496V289.168C385.241 285.623 386.484 283.851 388.969 283.851ZM388.969 284.914L388.432 287.041C388.897 295.205 389.964 299.287 391.633 299.287H392.696L393.223 296.623V290.769C393.223 286.866 392.693 284.914 391.633 284.914H388.969ZM402.418 283.851H405.608C409.16 283.851 410.936 287.045 410.936 293.433C410.227 298.045 408.097 300.351 404.545 300.351H403.481C400.287 300.351 398.69 298.399 398.69 294.496V289.168C398.69 285.623 399.933 283.851 402.418 283.851ZM402.418 284.914L401.881 287.041C402.346 295.205 403.413 299.287 405.082 299.287H406.145L406.672 296.623V290.769C406.672 286.866 406.142 284.914 405.082 284.914H402.418ZM415.373 297.665L415.91 299.824V301.436L414.836 302.521H414.299C414.299 301.081 413.579 300.361 412.14 300.361V297.665L415.373 297.128V297.665ZM420.701 283.851H423.892C427.444 283.851 429.22 287.045 429.22 293.433C428.511 298.045 426.38 300.351 422.828 300.351H421.765C418.571 300.351 416.974 298.399 416.974 294.496V289.168C416.974 285.623 418.216 283.851 420.701 283.851ZM420.701 284.914L420.164 287.041C420.629 295.205 421.697 299.287 423.365 299.287H424.429L424.955 296.623V290.769C424.955 286.866 424.425 284.914 423.365 284.914H420.701ZM434.15 283.851H437.341C440.893 283.851 442.669 287.045 442.669 293.433C441.96 298.045 439.829 300.351 436.277 300.351H435.214C432.02 300.351 430.423 298.399 430.423 294.496V289.168C430.423 285.623 431.665 283.851 434.15 283.851ZM434.15 284.914L433.613 287.041C434.079 295.205 435.146 299.287 436.814 299.287H437.878L438.404 296.623V290.769C438.404 286.866 437.874 284.914 436.814 284.914H434.15ZM447.6 283.851H450.79C454.342 283.851 456.118 287.045 456.118 293.433C455.409 298.045 453.279 300.351 449.727 300.351H448.663C445.469 300.351 443.872 298.399 443.872 294.496V289.168C443.872 285.623 445.115 283.851 447.6 283.851ZM447.6 284.914L447.062 287.041C447.528 295.205 448.595 299.287 450.264 299.287H451.327L451.853 296.623V290.769C451.853 286.866 451.324 284.914 450.264 284.914H447.6ZM460.555 297.665L461.092 299.824V301.436L460.018 302.521H459.48C459.48 301.081 458.761 300.361 457.321 300.361V297.665L460.555 297.128V297.665ZM465.883 283.851H469.073C472.625 283.851 474.401 287.045 474.401 293.433C473.692 298.045 471.562 300.351 468.01 300.351H466.946C463.752 300.351 462.155 298.399 462.155 294.496V289.168C462.155 285.623 463.398 283.851 465.883 283.851ZM465.883 284.914L465.346 287.041C465.811 295.205 466.878 299.287 468.547 299.287H469.61L470.137 296.623V290.769C470.137 286.866 469.607 284.914 468.547 284.914H465.883ZM479.332 283.851H482.522C486.074 283.851 487.851 287.045 487.851 293.433C487.142 298.045 485.011 300.351 481.459 300.351H480.395C477.201 300.351 475.604 298.399 475.604 294.496V289.168C475.604 285.623 476.847 283.851 479.332 283.851ZM479.332 284.914L478.795 287.041C479.26 295.205 480.327 299.287 481.996 299.287H483.06L483.586 296.623V290.769C483.586 286.866 483.056 284.914 481.996 284.914H479.332ZM492.781 283.851H495.972C499.524 283.851 501.3 287.045 501.3 293.433C500.591 298.045 498.46 300.351 494.908 300.351H493.845C490.651 300.351 489.054 298.399 489.054 294.496V289.168C489.054 285.623 490.296 283.851 492.781 283.851ZM492.781 284.914L492.244 287.041C492.71 295.205 493.777 299.287 495.445 299.287H496.509L497.035 296.623V290.769C497.035 286.866 496.505 284.914 495.445 284.914H492.781Z" fill="#2A4474"/>
<defs>
<filter id="filter0_d_1_117" x="143.11" y="0.387573" width="544.404" height="539" filterUnits="userSpaceOnUse" color-interpolation-filters="sRGB">
<feFlood flood-opacity="0" result="BackgroundImageFix"/>
<feColorMatrix in="SourceAlpha" type="matrix" values="0 0 0 0 0 0 0 0 0 0 0 0 0 0 0 0 0 0 127 0" result="hardAlpha"/>
<feOffset dy="4"/>
<feGaussianBlur stdDeviation="25"/>
<feComposite in2="hardAlpha" operator="out"/>
<feColorMatrix type="matrix" values="0 0 0 0 0 0 0 0 0 0 0 0 0 0 0 0 0 0 0.08 0"/>
<feBlend mode="normal" in2="BackgroundImageFix" result="effect1_dropShadow_1_117"/>
<feBlend mode="normal" in="SourceGraphic" in2="effect1_dropShadow_1_117" result="shape"/>
</filter>
</defs>
</svg>
